<svg xmlns="http://www.w3.org/2000/svg" version="1.0" viewBox="0 0 427 371"><g fill="#BFBFBF" stroke-width="0"><path d="m0 60.7.1 60.8 3.4-10.2c13.8-41 39.8-78.1 73.9-105.1L85.1 0H0v60.7zm15.5 17.2c-.3.6-1.1 1.1-1.7 1.1-.6 0-.6-.6.2-1.5 1.4-1.7 2.6-1.3 1.5.4z"/><path d="M86.5 3.1c-9 6.7-16.4 13.3-15.9 14.1.3.5.2.7-.3.6-1.4-.5-10.4 7.4-9.9 8.7.2.7-.1 1.2-.8 1.1-1.7-.2-16.7 16.7-16.1 18.2.3.7.1 1-.5.7-1.2-.7-12.1 14.6-11.5 16.3.3.7.1 1.1-.4.7-2.1-1.2-17.1 28.1-23 44.8-3.2 9.3-3.7 11.2-2.1 8.7.6-.9 1-1 1-.3s-.6 1.6-1.3 2c-.8.4-2.4 4.8-3.5 9.8-2.1 8.6-2.2 11-1.9 56.9.1 36.1.5 48 1.4 48.3.7.3 1 1 .7 1.7-.8 2 7.6 26.7 8.8 26 .7-.4.8-.3.4.5-1 1.5 1.3 8.3 2.5 7.6.5-.4.6.2.2 1.1-.4 1.1-.3 1.5.5 1 .6-.4 1 .1 1 1.1-.1 1 1.1 4.4 2.6 7.5 2.1 4.3 3.1 5.6 4.4 5.2 1.4-.5 1.4-.4.3.4-1.2.8-.7 2.3 2.8 8.4 13.8 24.1 35.5 48.1 59.5 66 14.5 10.8 14.8 10.9 27.5 10.6l11.1-.3-9.3-6.2c-32.4-21.6-55.6-50.1-69.2-85-1.7-4.6-3.5-8-4-7.6-.4.5-.5.3-.1-.4.3-.6-.5-5.4-1.8-10.7-4.3-16.5-6-30.5-6-50.6 0-27.4 4.5-52.5 12.9-72 2-4.7 3.9-9.1 4.2-9.9 1.1-2.5-15.8 7.1-21.2 12.1-6.1 5.6-12 14.2-10.9 15.9.4.7.3.9-.3.6-.6-.4-2 2.3-3.4 6.3-1.3 3.9-2.7 7-3.2 7-1.5 0 2.6-22.8 6.7-37.1 1.3-4.6 2.2-8.7 2-9.1-.3-.5-.1-.8.4-.8s2-2.8 3.2-6.3c5.9-16.3 17.5-36 30.7-52.3 4.5-5.6 7.9-10.5 7.5-10.9-.4-.4 0-.5.8-.3.8.1 1.4-.3 1.2-1-.1-.6.2-1.1.6-1 .4.2 4.3-2.8 8.5-6.7C77.6 40.7 84.6 35 89 31.9c4.4-3.1 7.6-5.9 7.2-6.3-.4-.4-.2-.6.3-.5.6.2 7.1-2.7 14.5-6.4 21.5-10.6 40.6-16 63.4-17.6 7.7-.6-3.5-.8-36.4-.9L90.5.1l-4 3zM143 5c-.8.5-1.9 1-2.5 1-.5 0-.3-.5.5-1s2-1 2.5-1c.6 0 .3.5-.5 1zM88.6 28.7c-1.1 1.1-1.7-.4-.9-2.3.7-1.8.8-1.8 1.1-.1.2 1 .1 2.1-.2 2.4zM86 30.9c0 1.3-2.8 2.2-3.5 1.1-.3-.4.1-1.1.7-1.3 2-.8 2.8-.8 2.8.2zm-7 6.5c0 .3-.4.8-1 1.1-.5.3-1 .1-1-.4 0-.6.5-1.1 1-1.1.6 0 1 .2 1 .4zM40.3 61.8c1.3 1.7 0 2.9-1.5 1.4-.7-.7-2-1.2-3-1.2-1.5 0-1.5-.3.5-2.3 1.7-1.7 2.3-1.9 2.6-.7.2.8.8 2.1 1.4 2.8zm-9.6 9.4c-.3.8-.6.5-.6-.6-.1-1.1.2-1.7.5-1.3.3.3.4 1.2.1 1.9zM23 116.3c0 .5-.4.5-1 .2-.5-.3-1-1.4-1-2.3 0-1.5.2-1.5 1-.2.5.8 1 1.9 1 2.3zm-12.3 24.9c-.3.8-.6.5-.6-.6-.1-1.1.2-1.7.5-1.3.3.3.4 1.2.1 1.9zM37 165.4c0 .2-.7.6-1.5 1-.8.3-1.5.1-1.5-.4 0-.6.7-1 1.5-1s1.5.2 1.5.4zM16 174c0 .5-.2 1-.4 1-.3 0-.8-.5-1.1-1-.3-.6-.1-1 .4-1 .6 0 1.1.4 1.1 1zM6 239.1c0 1.1-.4 1.8-1 1.4-.5-.3-.7-1.2-.3-2 .7-2.1 1.3-1.9 1.3.6zM36.5 252c.3.6-.1.7-.9.4-1.8-.7-2.1-1.4-.7-1.4.6 0 1.3.4 1.6 1zm3 15c1.6 1.7 1.6 2 .3 1.5-.9-.4-1.9-1.3-2.2-2.1-.7-1.9-.2-1.8 1.9.6zm-3 3.1c1.1 1.7-.1 2.1-1.5.4-.8-.9-.8-1.5-.2-1.5.6 0 1.4.5 1.7 1.1zM25 273.9c0 .6-.4 1.3-1 1.6-.5.3-1.1 2.1-1.1 3.8-.1 2.3-.3 2.6-.6 1-.2-1.3-1.4-3-2.6-3.8l-2.1-1.5h2.1c1.2 0 2.5-.5 2.8-1 .8-1.3 2.5-1.3 2.5-.1zm5.7 21.3c-.3.8-.6.5-.6-.6-.1-1.1.2-1.7.5-1.3.3.3.4 1.2.1 1.9zm14 19.4c-.3.3-1.2.4-1.9.1-.8-.3-.5-.6.6-.6 1.1-.1 1.7.2 1.3.5zM48 318c0 .5-.2 1-.4 1-.3 0-.8-.5-1.1-1-.3-.6-.1-1 .4-1 .6 0 1.1.4 1.1 1zm8.6 5.7c-.7.7-2.6-.7-2.6-1.9 0-.6.6-.6 1.5.2.9.7 1.3 1.5 1.1 1.7zm-3.2 2.9c.7 1.9.2 1.8-1.9-.6-1.6-1.7-1.6-2-.3-1.5.9.4 1.9 1.3 2.2 2.1z"/><path d="M212 .4c0 .2 4.5 4.1 10 8.6s10 8.6 10 9.1-4.6 1-10.2 1c-5.7.1-11.6.2-13.3.3-1.6.1-4.9.3-7.2.4-2.4.1-4.2.5-4.2.9.3 2-.2 2.7-1 1.4-.8-1.3-2.1-1.2-9.3.3-18.6 3.9-41.4 11.3-58.8 19.1-13.2 6-27.5 14-27.3 15.3.2.6-.3.9-1.1.6-1.6-.6-16.3 10.1-23.3 17.1C70.8 80.1 63 91.3 63 93.8c0 .9.6 1.2 1.5.8.9-.3 4-1.3 7-2.2 3-.8 5.5-2 5.5-2.5 0-.6.4-.8.9-.5.4.3 6.6-1.5 13.6-4 7-2.4 13-4.2 13.3-4 .2.3-.8 2.6-2.3 5.2-2.2 3.8-2.5 4.8-1.4 5.6 1.1.8 1 .9-.2.5-1.3-.4-2.8 1.9-6.8 10.8C80.5 133.4 73.5 166 74.2 196l.3 13.5 3.5-.3c2.9-.2 3.2 0 1.8.8-2.2 1.3-2.3 3.3-.3 5 .8.7 1.5 1.8 1.5 2.4 0 .6-.5.4-1-.4-.9-1.3-1.1-1.3-2 0-.7 1.2-1 .8-1-1.6 0-1.9-.6-3.4-1.5-3.8-1.9-.7-1.9 1.8 0 17.1 2.6 19.9 13.1 58.3 15.6 56.7.5-.3.6.1.3.9-.4 1.3 4.9 14.7 5.8 14.7.2 0 .5-6.4.6-14.3.2-7.8.7-14.5 1.1-15 .4-.4 2.7 2.1 5.1 5.5 8.2 11.7 19 24.7 20.2 24.4.7-.1 1-.1.6.1-1.4.8 6.4 9.4 16.2 18 21.1 18.6 42.9 30.5 65.9 35.8 4.8 1.2 6.7 1.3 7.8.4.7-.7 1.6-.9 2-.5.3.3 0 .6-.8.6-1.1 0-1.1.2.1 1 2.3 1.5 7.3 1.3 6.4-.3-.4-.6.2-.4 1.3.6 1.7 1.4 4 1.7 15.4 1.7 9.7 0 13-.3 11.9-1.1-1.1-.8-.5-.9 2.3-.4 4.5.7 19.9-1.4 19.1-2.6-.3-.5.9-.6 2.7-.2 2.2.4 3 .3 2.6-.5-.4-.6 0-.8 1-.6 1 .3 6.1-.6 11.3-2 8.3-2.1 9.1-2.4 6.5-3.1-11.9-2.8-18.7-5-23.1-7.5-2.9-1.6-5.4-2.6-5.7-2.4-.3.3-.4-.2-.3-1.3.2-1 .7-1.7 1.2-1.6.5.1 4.1 1 7.9 2 8.2 2.1 33.6 2.5 34.3.5.2-.6.9-.9 1.7-.6 4.8 1.9 54.7-16.9 52.8-19.9-.3-.6-.1-.7.5-.3.6.3 3.9-.9 7.5-2.9 6.9-3.8 7.7-4 7.7-2.5 0 2.4-27.3 27.2-37.1 33.7-2.1 1.4-3.6 3-3.2 3.6.3.6.1.7-.5.3-.6-.4-2 .1-3 1.1s-2.4 1.9-3 2c-.6.2-3.5 1.8-6.4 3.7-2.9 1.8-10.2 5.9-16.3 8.9l-11 5.6 15.6.1h15.5l9-5.9c11.6-7.7 22.6-17 21.8-18.3-.5-.7-.2-.8.5-.3 1.8 1.1 6.5-3.6 4.9-4.8-1-.6-.9-.7.3-.4 1.9.6 11.4-8.5 10.2-9.8-.5-.4-.2-.4.6 0 1.1.6 1.3.4.8-.8-.4-1-.2-1.6.5-1.4 2.7.6 22.7-26.8 31.2-42.7 4.8-9.1 10.3-21.5 13.2-30l2.4-7V113.9l-2.9-7.7c-5.4-14.7-10.2-24.1-12-23.5-1.2.4-1.3.3-.3-.5 1.1-.7.9-1.9-1.1-5.8-4.3-8.3-13.3-21.5-14.2-20.7-.4.5-.5.3-.2-.3.8-1.3-6.2-10.7-15.9-21.6-10.3-11.4-25.6-25.1-35.2-31.3-3.6-2.4-4.5-2.6-5.3-1.4-.6 1-.9 1-.9.1S335 0 322.3 0h-16.8l2.5 2c1.4 1.1 3.1 1.8 3.7 1.5.7-.2 1.2-.1 1 .4-.1.4 3.2 3.5 7.3 6.8 8.9 7.1 23.8 22.4 30.1 30.8 5.6 7.3 13.4 20.2 16.1 26.4 3 6.9 7.8 21.2 7.8 23.3 0 1.1.4 1.7.9 1.4.5-.3 1.2.1 1.5 1 .3.9.2 1.2-.5.8-.7-.4-.9.8-.5 3.7 2.1 16.9 1.9 18.7-1.4 16.7-1-.7-1.7-1.5-1.5-1.8.5-.8-16.3-24.1-22.8-31.4-3.3-3.7-6.3-6.3-6.9-6-.6.4-.8.2-.5-.3 1.4-2.2-16.4-16.1-26.4-20.8-3-1.4-6.2-2.2-7.3-1.9-1.1.4-1.6.2-1.3-.3.7-1.1-7.1-3.8-8.1-2.9-.3.3.3.6 1.4.7 1.8 0 1.8.1-.1.8-2.6 1-5.3.2-3.4-1 .8-.4 1.1-1 .9-1.3-.8-.8-15.9-2.6-21.3-2.6l-5.2.1 6.4 2.9c3.5 1.7 6.8 2.7 7.5 2.3.6-.3.8-.3.4.2-1 1.1 7.1 4.7 8.5 3.8.5-.3.7-.2.4.4-.3.5 1.8 2 4.8 3.2 3 1.3 5.5 2.6 5.5 3.1 0 1-3.6 2-7.2 2-1.6 0-2.8.5-2.8 1.1 0 .5-.5.7-1 .4-3.2-1.9-32.4 8.6-46.8 16.8-11.9 6.8-25.4 16.6-24.6 17.8.3.5 0 .8-.8.7-.7-.2-1.2.3-1 1 .1.8-.2 1.1-.8.7-1.6-1-19 17.8-19 20.5 0 .4 3-.5 6.8-2.1 3.7-1.5 8.9-3.1 11.5-3.5 3.4-.5 4.4-1 3.5-1.6-.8-.5 0-.7 2.2-.3 1.9.3 6.7.1 10.5-.3 3.9-.5 7.4-.7 7.8-.5.4.3-2.9 3.2-7.5 6.6-32.7 23.9-51.9 48.1-64.2 81.1-2.1 5.5-3.5 10.7-3.3 11.8.3 1 .2 1.6-.3 1.3-1.1-.7-3.2 8.3-2.5 10.8.5 1.6.4 1.8-.3.8-1.2-1.7-5.5 20-5.6 28.1 0 3.3-.4 5.2-.9 4.5-.5-.7-.6.9-.2 3.5.3 2.7.2 4.8-.3 4.8s-1.5 5.4-2.2 12c-.8 8.1-1.6 12-2.4 11.7-1.6-.5-7.3-18-9-27.4-.8-4.7-1.8-7.7-2.5-7.5-.6.1-1.1-.5-1.1-1.4 0-.8.5-1.2 1-.9.7.5 1.1-3.2 1-11.2-.2-27.8 9.4-61.9 23.8-84.7 1.4-2.3 2.5-4.6 2.5-5.3 0-.7.4-1 .9-.7.7.5 1.2-1 .9-2.9-.1-.5.3-.6.7-.3 1 .6 4.8-3.1 4.1-3.9-.9-.8-8.2 1.7-9.8 3.4-.9.9-1.2 1.1-.7.4.5-.7.5-1.3 0-1.3-1.3 0-10.5 4.9-13.3 7.1-3.2 2.5-4.4 2.4-3.6-.4 1.7-5.3 8.8-19.4 13.9-27.2 3.1-4.7 5.6-8.7 5.6-9 0-.2-.6-.5-1.2-.8-.7-.2-.5-.3.4-.2 2.1.3 13.3-13.1 11.8-14-.6-.3-1-1.2-1-1.8 0-.7.5-.4 1.1.7 1 1.7 1.7 1.2 7.5-4.5 3.5-3.4 6-6.7 5.7-7.2-.3-.6-.2-.7.4-.4.5.3 3.2-1.2 5.9-3.5 10.8-8.9 29.8-20.3 40.7-24.3 2.6-1 4.7-2.3 4.7-3 0-.7 1-1.5 2.3-1.8 2.2-.6 2.2-.6.2 1l-2 1.6 2-.7c1.1-.4 3.2-1 4.8-1.3 1.5-.3 2.9-.9 3.2-1.3.6-1-14.3-5.3-16.1-4.6-.8.3-1.2.2-.9-.4.4-.6-.9-1-2.9-1-2.2 0-3.6.5-3.6 1.2 0 1-.3.9-.9-.1-.6-1-1.9-1.2-4.5-.7-5.2 1-4.7-.8 2.2-7.4 7-6.6 13.9-10.2 24.7-13 6.7-1.8 10.5-2.1 23.8-1.8 8.6.1 15.7.6 15.7 1s.9.8 2.1.8c2.9 0 19.1 5.5 26.4 9 3.4 1.6 9.6 5.2 13.9 8l7.8 5.1-3.8-4.7c-5.7-6.9-17.5-16.9-28.8-24.3-10.9-7.1-30.9-16.6-33.3-15.7-.8.3-1.2.2-.8-.3.5-1-4.1-2.7-16.5-6.1-6.3-1.7-10.4-2-27.2-2-10.9 0-19.8.2-19.8.4zm44.6 6.4c-1.6.2-3.2 0-3.7-.5s.7-.7 2.9-.4c3.4.5 3.5.6.8.9zm22.9 4.2c1.6 1.7 1.6 2 .3 1.5-.9-.4-1.9-1.3-2.2-2.1-.7-1.9-.2-1.8 1.9.6zm-3 3.1c1.1 1.7-.1 2.1-1.5.4-.8-.9-.8-1.5-.2-1.5.6 0 1.4.5 1.7 1.1zm-32 12.8c-.3.6-1.1 1.1-1.7 1.1-.6 0-.6-.6.2-1.5 1.4-1.7 2.6-1.3 1.5.4zm54.9-.4c.3.8.1 1.5-.4 1.5-.6 0-1-.7-1-1.5s.2-1.5.4-1.5.6.7 1 1.5zm5.6-.5c0 .5-.2 1-.4 1-.3 0-.8-.5-1.1-1-.3-.6-.1-1 .4-1 .6 0 1.1.4 1.1 1zm2.7 2.2c-.3.8-.6.5-.6-.6-.1-1.1.2-1.7.5-1.3.3.3.4 1.2.1 1.9zm-35-.6c-.3.3-1.2.4-1.9.1-.8-.3-.5-.6.6-.6 1.1-.1 1.7.2 1.3.5zm-22.8.7c-.2.1-1.4 1.1-2.6 2.1-1.3 1.1-2.3 1.6-2.3 1.3 0-1 3.1-3.7 4.2-3.7.6 0 .9.1.7.3zm55.1 3.8c0 .4-.7.6-1.5.3-.8-.4-1.5-1-1.5-1.5 0-.4.7-.6 1.5-.3.8.4 1.5 1 1.5 1.5zm-152.9 5.6c1.3 1.7 1.3 1.7-.6.3-1.1-.8-2.2-1.6-2.4-1.7-.2-.2 0-.3.6-.3s1.7.8 2.4 1.7zM285 48.4c0 .3-.4.8-1 1.1-.5.3-1 .1-1-.4 0-.6.5-1.1 1-1.1.6 0 1 .2 1 .4zm34 13.5c-.8.2-2.1.8-2.8 1.4-1.7 1.3-2.9 0-1.4-1.5.7-.7 1.2-2 1.2-3 0-1.5.3-1.5 2.3.5 1.7 1.7 1.9 2.3.7 2.6zM273.3 73c-.3 1.1-1.4 2-2.4 2-2.6 0-2.4-1.9.4-3 1.2-.5 2.3-.9 2.4-.9 0-.1-.1.8-.4 1.9zm131.3 1.5c.4.8 1.7 1.5 3 1.5 1.6 0 2.2.4 1.8 1.5-.5 1.1-1 1.2-2.5.2-1.7-1-2.3-.9-3.5.8-1.3 1.8-1.4 1.7-1.2-1.8.3-3.8 1.4-4.8 2.4-2.2zm-195.9 1.1c-.3.3-1.2.4-1.9.1-.8-.3-.5-.6.6-.6 1.1-.1 1.7.2 1.3.5zm-5 3.6c-.3.8-.6.5-.6-.6-.1-1.1.2-1.7.5-1.3.3.3.4 1.2.1 1.9zm36.8 10.7c.3.5.1 1.2-.5 1.6-.5.3-1-.1-1-.9 0-1.8.6-2.1 1.5-.7zm68.5 15.5c0 .2-.9 4.6-1.9 9.8-2.6 12.3-5.2 31.7-5 35.9.1 1.9-.1 5.6-.5 8.4-.9 6.6 1 29.8 3.5 41 8.1 37.3 28.1 65.2 61.5 85.6 7.5 4.6 8.4 5.4 6.2 5.7-3.3.4-26.2-4.3-34.1-7-3.4-1.1-8.8-3.4-12-5-3.2-1.6-6.2-2.6-6.8-2.3-.5.4-.9.3-.8-.2.2-.4-3.1-4.2-7.2-8.3-15.2-15.5-27.6-45-31.1-74-.6-5.4-1.7-10-2.5-10.6-1.5-1.3-1.8-2.8-.3-1.9 1.2.7 1.3-4.4.4-13.4l-.7-6.2-2.9 2.8c-5 4.7-11.9 14.5-11.4 16 .3.8.2 1.2-.3.9-1.1-.7-2.3 2.2-1.4 3.6.3.6.1.8-.4.5-1.3-.8-4.8 7.1-7 16-1.1 4.7-1.6 11-1.6 20.3 0 16.1 2.2 28.2 8.8 47.5 2.4 7.1 4.2 13.2 4 13.4-.3.2-1.2-.2-2-.9-3.3-2.8-19.7-23.1-27-33.6-5.2-7.4-8.2-10.8-9.3-10.6-1.4.2-1.4.1-.3-.6 1.1-.8.2-2.8-4.1-10.1-3-5-5.8-8.8-6.3-8.3-.5.4-.5.2-.2-.4.4-.7-1.8-6.4-4.9-12.9l-5.6-11.7-2.2 3.3c-4.3 6.5-5.1 9.9-5 20.9.1 11.7 2.4 20.8 9.1 34.8 1.9 4.1 3.2 7.6 2.9 8-.4.3-3.7-2.4-7.4-6.1-5.6-5.6-7-6.5-8.2-5.5-1.2 1.1-1.2 1-.1-.4 1.4-1.9.6-4.2-1.2-3.2-.7.4-.9.4-.5 0 .4-.5-.9-3.6-2.7-7-1.9-3.4-4.5-10.2-5.7-15.1-1.9-7.5-2.2-10.3-1.6-17 .4-4.4.5-9.1.2-10.5-.3-1.9-.2-2.2.6-1 .8 1.3 1 1.2 1-.3 0-5.6 8.4-21.6 16.1-30.8 2.1-2.5 3.5-4.9 3.1-5.3-.4-.4 0-.6.8-.4.8.2 1.4-.3 1.3-.9-.2-.7.1-1.2.6-1 .5.1 3-1.5 5.5-3.6 4.8-4 6.6-4.6 6.6-2.2 0 .8.8 1.6 1.8 1.6 1.6.1 1.6.2 0 .6-1.6.4-1.8 1.8-1.8 10.2 0 10.1.9 16.7 3.5 25.8 1.4 4.8 1.8 5.3 4.3 5.3 1.6 0 3.3-.5 4-1.2.6-.6 1.5-.9 1.9-.5.4.4.1 1.3-.5 1.9-.7.7-1.2 2.1-1.2 3.2 0 2-.1 2-1.6-.2-1.3-2-4.4-3.1-4.4-1.6 0 2.1 4.4 10.3 5.3 9.7.6-.3.7-.1.3.6-.4.6 1 3.9 3.1 7.4l3.8 6.2.6-16c.6-17.5 2.1-24.9 7.4-37.6 6.2-14.8 19.8-31.2 36.3-43.6 3.9-3.1 7.2-6 7.2-6.5s.3-.7.8-.5c.4.3 4.5-2.2 9.2-5.4 7.8-5.3 10-6.5 10-5.5zm27.8 3.2c-.4.3-1.2-.5-1.8-1.8-1.2-2.2-1.2-2.2.6-.6 1 1 1.5 2 1.2 2.4zm84.9.6c-.3.7-.5.2-.5-1.2s.2-1.9.5-1.3c.2.7.2 1.9 0 2.5zm-88.2.9c1.1 1.7.2 1.8-1.9.3-1.7-1.2-1.7-1.4-.4-1.4.9 0 2 .5 2.3 1.1zm36-.1c-.3.5-1.4 1-2.3.9-1.4 0-1.3-.2.3-.9 2.7-1.1 2.7-1.1 2 0zm-39.5 1.5c1.6.8 8.2 1.9 14.6 2.5 6.5.6 11.9 1.2 12.2 1.4.2.2-.4 1.8-1.2 3.5-1.7 3.1-2.3 11.8-.7 9.2.5-.7 1.4-1.2 2.1-.9.9.3.8.9-.4 2.1-1.3 1.3-1.6 2.5-1.1 4.8l.7 3.2-3.8-.7c-6.5-1.3-16-5.6-18.9-8.6-1.5-1.6-3.2-2.7-3.7-2.4-.5.3-.8.2-.7-.3.1-.4-.1-1.5-.4-2.3-1.6-3.9-3.5-11.9-3-12.4.9-.8 1-.8 4.3.9zm-161.2 4c-.3.3-.9-.2-1.2-1.2-.6-1.4-.5-1.5.5-.6.7.7 1 1.5.7 1.8zm59.9-1.9c-.3.3-1.2.4-1.9.1-.8-.3-.5-.6.6-.6 1.1-.1 1.7.2 1.3.5zm-12.7 2.8c0 .2-.7.7-1.6 1-.8.3-1.2.2-.9-.4.6-1 2.5-1.4 2.5-.6zm20.4 8.1c.3.8.1 1.5-.4 1.5-.6 0-1-.7-1-1.5s.2-1.5.4-1.5.6.7 1 1.5zm89.3 1.1c-.3.3-1.2.4-1.9.1-.8-.3-.5-.6.6-.6 1.1-.1 1.7.2 1.3.5zm64.6 22.1c8.2 16.9 14.3 28 20.7 38.1 1.3 2 1.2 2.9-.8 8.5-1.2 3.5-2 7.2-1.6 8.3.4 1.4.3 1.5-.4.5s-1.2-.5-2.2 2.3c-.6 1.9-.8 4.1-.4 4.7.4.7.3.9-.3.6-.6-.4-2.3 2.5-3.9 6.9-2 5.2-4 8.6-6.4 10.7-1.9 1.7-3.4 3.4-3.3 3.7.1.4-.3.7-1 .7-2.8.1-14.6 6.3-16.1 8.4-1.2 1.8-1.6 4.8-1.6 13.1 0 5.9-.4 10.9-1 11.3-.5.3-3.7-.8-7.1-2.5-3.3-1.7-6.4-2.9-6.7-2.6-.3.4 0 4.2.7 8.7.8 4.4 1.1 8.3.7 8.6-1.1 1.1-4.8-3.1-6.8-7.7-3.3-7.6-6-23.5-4.3-25.2.3-.3 3.8 1.6 7.8 4.3 4 2.7 7.6 4.9 8.1 4.9s.7-4 .4-8.8c-.5-11.4-2.1-14.2-12-20.8-9.3-6.2-18.7-9.4-29.6-10.1-4.5-.3-8.5-1-8.8-1.5-.9-1.5 5.5-6.7 9.2-7.4 5.5-1 10 .4 23 7.1 6.7 3.5 12.5 6.1 13 5.7.4-.4.4-.2.1.4-1.1 1.9 12.7 6.5 18.6 6.3 4.7-.3 5.1-.5 7.9-4.8 1.8-3 2.7-5.4 2.3-6.8-.3-1.2 0-2.3.6-2.5.8-.3.9-1.8.4-4.6-.4-2.3-1.1-4-1.5-3.7-.5.3-1.2 0-1.6-.6-.4-.8-.3-.9.4-.5s1.2.4 1.2-.1c0-2.1-4.9-7.7-14.7-16.9-5.9-5.6-10.6-10.4-10.3-10.7.3-.3 3.5 1.4 7 3.9 8 5.6 19.9 11.4 23.2 11.4 3 0 4.1-2 3.2-5.8-1.4-6.5-8.8-25.1-9.7-24.5-.6.3-.7.1-.3-.6.8-1.3-1.4-8.1-2.7-8.1-.4 0-.6-.3-.3-.8.2-.4-.7-4.5-2-9.1-2.5-8.6-3-12.1-1.6-12.1.4 0 5.1 8.9 10.5 19.7zm-29.5-4.1c-.7.6-6.8-2-6.8-2.8 0-.4 1.2-.8 2.6-.8 1.8 0 2.8-.7 3.2-2.3.6-1.8.8-1.4 1 1.7.2 2.1.2 4 0 4.2zM216 145c0 .5-.5 1-1.1 1-.5 0-.7-.5-.4-1 .3-.6.8-1 1.1-1 .2 0 .4.4.4 1zm-3.6 2.1c-.9 1.5-3.4 1-2.8-.5.3-.8 1.2-1.2 2-.9.8.3 1.1.9.8 1.4zm168.6 2c0 .5-.4.9-1 .9-.5 0-1-.7-1-1.6 0-.8.5-1.2 1-.9.6.3 1 1 1 1.6zM203.5 154c-.3.5-1.2 1-1.8 1-.7 0-.6-.4.3-1 1.9-1.2 2.3-1.2 1.5 0zm41 .9c-.3.6-1.1 1.1-1.7 1.1-.6 0-.6-.6.2-1.5 1.4-1.7 2.6-1.3 1.5.4zm-82.6-.6c-.2.1-1.3.9-2.4 1.7-1.9 1.4-1.9 1.4-.6-.3.7-.9 1.8-1.7 2.4-1.7.6 0 .8.1.6.3zm88.1.4c-.1.5-1.5 2.4-3.2 4.3-3.6 4.1-3.4 2.5.2-1.9 2.7-3.2 3-3.5 3-2.4zm54.7 4.5c-.3.8-.6.5-.6-.6-.1-1.1.2-1.7.5-1.3.3.3.4 1.2.1 1.9zm-148.4-.5c-.7.2-1.9.2-2.5 0-.7-.3-.2-.5 1.2-.5s1.9.2 1.3.5zm66.4 15.5c-.3.8-.6.5-.6-.6-.1-1.1.2-1.7.5-1.3.3.3.4 1.2.1 1.9zm13 5c-.3.8-.6.5-.6-.6-.1-1.1.2-1.7.5-1.3.3.3.4 1.2.1 1.9zm69 0c-.3.8-.6.5-.6-.6-.1-1.1.2-1.7.5-1.3.3.3.4 1.2.1 1.9zm-65 1c-.3.8-.6.5-.6-.6-.1-1.1.2-1.7.5-1.3.3.3.4 1.2.1 1.9zm35 3c-.3.7-.5.2-.5-1.2s.2-1.9.5-1.3c.2.7.2 1.9 0 2.5zm-39.4 6.3c-.7 2.1-1.3 1.9-1.3-.6 0-1.1.4-1.8 1-1.4.5.3.7 1.2.3 2zm138.7.5c-.8.5-1.9 1-2.5 1-.5 0-.3-.5.5-1s2-1 2.5-1c.6 0 .3.5-.5 1zm-225.3 3.2c-.3.7-.5.2-.5-1.2s.2-1.9.5-1.3c.2.7.2 1.9 0 2.5zm127.9 4.6c-1.1 1-1.5-.4-.8-2.8l.7-2.5.3 2.3c.2 1.3.1 2.6-.2 3zM178 203c0 1.1-.4 2-.9 2s-.7-.9-.4-2c.3-1.1.7-2 .9-2 .2 0 .4.9.4 2zm29 2.9c-.8.2-2.1.8-2.8 1.4-1.7 1.3-2.9 0-1.4-1.5.7-.7 1.2-2 1.2-3 0-1.5.3-1.5 2.3.5 1.7 1.7 1.9 2.3.7 2.6zm30-2.9c0 1.3-.5 1.8-1.5 1.4-1.1-.4-1.5 0-1.5 1.7 0 1.2-.3 2-.6 1.6-.3-.3-.3-1.9.1-3.6.7-3.4 3.5-4.3 3.5-1.1zm92 0c0 .5-.7.7-1.5.4-.8-.4-1.5-.8-1.5-1 0-.2.7-.4 1.5-.4s1.5.4 1.5 1zm-72.3 2.2c-.3.8-.6.5-.6-.6-.1-1.1.2-1.7.5-1.3.3.3.4 1.2.1 1.9zm56.4 7.5c-1.2 2-1.4 1.4-.5-1.2.4-.9.9-1.4 1.1-1.1.3.2 0 1.3-.6 2.3zm-57.4 6.5c-.2 1.3-.4.5-.4-1.7-.1-2.2.1-3.2.4-2.3.2 1 .2 2.8 0 4zm29 2.6c-.3 1.2-.5 1.1-.6-.6 0-1.2-.6-2.2-1.2-2.2-.5 0-.7-.5-.3-1.1.9-1.6 2.7 1.6 2.1 3.9zM201 220c0 .5-.4 1-1 1-.5 0-1-.5-1-1 0-.6.5-1 1-1 .6 0 1 .4 1 1zm-62.3 3.2c-.3.7-.5.2-.5-1.2s.2-1.9.5-1.3c.2.7.2 1.9 0 2.5zM80 223c0 .5-.4 1-1 1-.5 0-1-.5-1-1 0-.6.5-1 1-1 .6 0 1 .4 1 1zm103 3.5c0 .8.4 1.5.9 1.5s1.1.9 1.4 2c.8 3.2-.6 2.3-2.5-1.5-1-1.9-1.3-3.5-.8-3.5.6 0 1 .7 1 1.5zm-17.3 10.7c-.3.8-.6.5-.6-.6-.1-1.1.2-1.7.5-1.3.3.3.4 1.2.1 1.9zm3 0c-.3.8-.6.5-.6-.6-.1-1.1.2-1.7.5-1.3.3.3.4 1.2.1 1.9zm-88 8c-.3.8-.6.5-.6-.6-.1-1.1.2-1.7.5-1.3.3.3.4 1.2.1 1.9zm245.3-.8c0 .3-.4.8-1 1.1-.5.3-1 .1-1-.4 0-.6.5-1.1 1-1.1.6 0 1 .2 1 .4zm31.6 2.3c-.7.7-2.6-.7-2.6-1.9 0-.6.6-.6 1.5.2.9.7 1.3 1.5 1.1 1.7zm-65.4.5c-.7.7-1.2.8-1.2.2 0-1.4 1.2-2.6 1.9-1.9.2.3-.1 1.1-.7 1.7zm82.5 5c-.3.7-.5.2-.5-1.2s.2-1.9.5-1.3c.2.7.2 1.9 0 2.5zm-27.7 6.9c0 1.4-3.6 1.1-4.9-.4-.8-1.1-.5-1.3 1.9-.9 1.7.2 3 .8 3 1.3zm-85 2.4c0 1.4-.4 2.5-.9 2.5-.4 0-.6-1.1-.3-2.5.2-1.4.6-2.5.8-2.5.2 0 .4 1.1.4 2.5zm77.5-.5c.3.6-.1.7-.9.4-1.8-.7-2.1-1.4-.7-1.4.6 0 1.3.4 1.6 1zm3.5 2.5c1.1 1.3 1 1.4-.4.9-.9-.3-1.6-1-1.6-1.5 0-1.3.6-1.1 2 .6zm-199.3 4.2c1.4 2.9.5 4.3-2.7 4.3-1.2 0-1.3-.2-.1-.9.8-.5 1.2-1.9.9-3.5-.7-3.4.4-3.3 1.9.1zm15 11.5c-.3.7-.5.2-.5-1.2s.2-1.9.5-1.3c.2.7.2 1.9 0 2.5zm112.3 5.3c0 1.4-.4 2.5-1 2.5-.5 0-1-1.1-1-2.5s.5-2.5 1-2.5c.6 0 1 1.1 1 2.5zm133.7 6.7c-.3.8-.6.5-.6-.6-.1-1.1.2-1.7.5-1.3.3.3.4 1.2.1 1.9zm-263.2 24.6c-.3.3-1.1 0-1.8-.7-.9-1-.8-1.1.6-.5 1 .3 1.5.9 1.2 1.2zM376 333.5c0 1.2-1.9 1.2-2.3 0-.4-.9-.1-1.2.9-.8.7.3 1.4.7 1.4.8zm-7.3 3.7c-.3.8-.6.5-.6-.6-.1-1.1.2-1.7.5-1.3.3.3.4 1.2.1 1.9zm-5.2 5.8c.3.6-.1.7-.9.4-1.8-.7-2.1-1.4-.7-1.4.6 0 1.3.4 1.6 1zm-112 11.8c-.3.3-1.1 0-1.8-.7-.9-1-.8-1.1.6-.5 1 .3 1.5.9 1.2 1.2zM247 356c2 .6 2.1.8.5.8-1.1 0-2.9-.3-4-.8-2.5-1.1.1-1.1 3.5 0zm-7.2 1.7c-1 .2-2.8.2-4 0-1.3-.2-.5-.4 1.7-.4 2.2-.1 3.2.1 2.3.4zm95.6 2.2c.3.4-.3 1.6-1.4 2.6-1.9 1.7-1.9 1.7-.7-.9 1.4-2.9 1.4-2.9 2.1-1.7zm-.1 7.1c-1 1.1-1.9 2-2.1 2-.1 0 .2-.9.8-2 .6-1.1 1.5-2 2-2 .6 0 .2.9-.7 2z"/><path d="M355.7 6.2c23.9 18.9 45.9 45.5 60.3 73.3 2.9 5.5 5.5 10.2 5.9 10.5.3.3.6.9.7 1.5.1 2.9 1.7 6.4 2.7 5.8.5-.3.7-.1.4.5-.4.5-.3 2.1.2 3.4.6 1.5 1-16.1 1-49.5L427 0h-79.1l7.8 6.2zm47.8 46.6c-.8.9-2.5-2-1.8-3.1.3-.5 1-.2 1.5.7.6 1 .7 2 .3 2.4zM408 55c1.2.8 1.1 1-.7 1-1.3 0-2.3-.5-2.3-1 0-1.3 1.1-1.3 3 0zm-.3 3.6c-.3.3-1.2.4-1.9.1-.8-.3-.5-.6.6-.6 1.1-.1 1.7.2 1.3.5zM0 306.7V371h47.2c26 0 46.8-.4 46.3-.8-.6-.5-5.5-4.2-11-8.3-19.4-14.4-37.6-33.3-51.9-54.1-2.9-4.3-5.7-7.4-6.1-7-.5.4-.5.2-.2-.4.9-1.5-7.7-16.6-8.8-15.6-.5.4-.5.2-.1-.5.9-1.6-1.4-6.4-2.7-5.6-.6.3-.7.1-.4-.4.9-1.5-1.7-7.5-2.8-6.6-.4.5-.5.3-.2-.4 1-1.6-.3-4.4-1.6-3.6-.6.3-.7.1-.3-.6.9-1.4-1.4-8.2-2.6-7.5-.4.3-.6-.1-.3-.8.3-.7-.6-4.7-2-8.8l-2.4-7.5-.1 64.2zM36.5 323c.3.6-.1.7-.9.4-1.8-.7-2.1-1.4-.7-1.4.6 0 1.3.4 1.6 1zm4.2 3.6c-.3.3-1.2.4-1.9.1-.8-.3-.5-.6.6-.6 1.1-.1 1.7.2 1.3.5zm6.8 6.5c1.1 1.6.1 1.9-1.3.3-.7-.8-.8-1.4-.3-1.4s1.3.5 1.6 1.1zm24 24.9c.3.5.1 1-.4 1-.6 0-1.1-.5-1.1-1 0-.6.2-1 .4-1 .3 0 .8.4 1.1 1zm353-91.3c-2.9 7.7-11.9 25.1-17.9 34.7-3.1 4.8-5.3 9.3-4.9 9.9.3.5.1.7-.5.4-.5-.4-2.7 1.6-4.9 4.5-2.1 2.9-6.6 8.5-10 12.4-3.4 4-5.9 7.5-5.5 7.9.4.4.2.5-.3.3-1.7-.5-5.8 3.9-5 5.3.5.8.4 1-.3.5-.6-.4-4.3 2.3-8.4 6-4 3.7-11.8 10.1-17.3 14.2s-10.2 7.6-10.4 7.8c-.2.2 19.5.3 43.8.4H427v-54.5c0-30-.2-54.5-.4-54.5s-1.1 2.1-2.1 4.7zm-32.2 67.1c1.3 1.7 0 2.9-1.5 1.4-.7-.7-2.3-1.2-3.7-1.3-2.6 0-2.6 0-.3-.9 1.2-.5 2.6-1.8 2.9-2.7.7-1.6.8-1.6 1.1.2.2 1.1.9 2.6 1.5 3.3zm-11.6 8.8c-.3.3-1.2.4-1.9.1-.8-.3-.5-.6.6-.6 1.1-.1 1.7.2 1.3.5zm-9 8c-.3.3-1.2.4-1.9.1-.8-.3-.5-.6.6-.6 1.1-.1 1.7.2 1.3.5zm-247.7-.2c0 .7 10 16 12.3 18.8 1.2 1.5 3.1 1.8 11.8 1.8h10.4l-10-5.6c-5.5-3.1-10.6-5.6-11.2-5.7-.7 0-1.1-.2-.8-.5.2-.3-1.2-1.7-3.3-3.2-6.1-4.3-9.2-6.3-9.2-5.6z"/></g><path fill="#404040" d="m180.5 1-6 .7 6.3.1c3.6.1 6.2-.2 6.2-.8 0-.6-.1-.9-.2-.8-.2.1-3 .4-6.3.8zM347 .4c0 .2.8 1 1.8 1.7 1.5 1.3 1.6 1.2.3-.4S347-.4 347 .4zM165.8 2.7c.6.2 1.8.2 2.5 0 .6-.3.1-.5-1.3-.5-1.4 0-1.9.2-1.2.5zm-7 1c.7.3 1.6.2 1.9-.1.4-.3-.2-.6-1.3-.5-1.1 0-1.4.3-.6.6zm55.2-.3c0 .2.8 1 1.8 1.7 1.5 1.3 1.6 1.2.3-.4S214 2.6 214 3.4zm137 0c0 .2.8 1 1.8 1.7 1.5 1.3 1.6 1.2.3-.4S351 2.6 351 3.4zM152.8 4.7c.7.3 1.6.2 1.9-.1.4-.3-.2-.6-1.3-.5-1.1 0-1.4.3-.6.6zm-77.9 4c-1.3 1.6-1.2 1.7.4.4.9-.7 1.7-1.5 1.7-1.7 0-.8-.8-.3-2.1 1.3zm3 0c-1.3 1.6-1.2 1.7.4.4.9-.7 1.7-1.5 1.7-1.7 0-.8-.8-.3-2.1 1.3zM353 7.4c0 .2.8 1 1.8 1.7 1.5 1.3 1.6 1.2.3-.4S353 6.6 353 7.4zm-133 1c0 .2.8 1 1.8 1.7 1.5 1.3 1.6 1.2.3-.4S220 7.6 220 8.4zM68.9 13.7l-2.4 2.8 2.8-2.4c2.5-2.3 3.2-3.1 2.4-3.1-.2 0-1.4 1.2-2.8 2.7zm3 0-2.4 2.8 2.8-2.4c2.5-2.3 3.2-3.1 2.4-3.1-.2 0-1.4 1.2-2.8 2.7zm287.6-.7c1 1.1 2 2 2.3 2 .3 0-.3-.9-1.3-2s-2-2-2.3-2c-.3 0 .3.9 1.3 2zm-37 1c1 1.1 2 2 2.3 2 .3 0-.3-.9-1.3-2s-2-2-2.3-2c-.3 0 .3.9 1.3 2zm41 0c1 1.1 2 2 2.3 2 .3 0-.3-.9-1.3-2s-2-2-2.3-2c-.3 0 .3.9 1.3 2zM226 13.4c0 .2.8 1 1.8 1.7 1.5 1.3 1.6 1.2.3-.4s-2.1-2.1-2.1-1.3zm-20.2 5.3c.6.2 1.8.2 2.5 0 .6-.3.1-.5-1.3-.5-1.4 0-1.9.2-1.2.5zM372.5 25c3.8 3.8 7.2 7 7.4 7 .3 0-2.6-3.2-6.4-7-3.8-3.9-7.2-7-7.4-7-.3 0 2.6 3.1 6.4 7zm-314 1.2-7 7.3 7.3-7c3.9-3.8 7.2-7.1 7.2-7.2 0-.8-1.1.2-7.5 6.9zm139.3-6.5c.6.2 1.8.2 2.5 0 .6-.3.1-.5-1.3-.5-1.4 0-1.9.2-1.2.5zm-6 1c.7.3 1.6.2 1.9-.1.4-.3-.2-.6-1.3-.5-1.1 0-1.4.3-.6.6zM334.5 25c2.7 2.7 5.1 5 5.4 5 .3 0-1.7-2.3-4.4-5-2.7-2.8-5.1-5-5.4-5-.3 0 1.7 2.2 4.4 5zm38.5-2.5c1.3 1.4 2.6 2.5 2.8 2.5.3 0-.5-1.1-1.8-2.5s-2.6-2.5-2.8-2.5c-.3 0 .5 1.1 1.8 2.5zM57.4 24.2l-2.9 3.3 3.3-2.9c3-2.8 3.7-3.6 2.9-3.6-.2 0-1.6 1.5-3.3 3.2zm129.4-2.5c.7.3 1.6.2 1.9-.1.4-.3-.2-.6-1.3-.5-1.1 0-1.4.3-.6.6zm-9 2c.7.3 1.6.2 1.9-.1.4-.3-.2-.6-1.3-.5-1.1 0-1.4.3-.6.6zm-8 2c.7.3 1.6.2 1.9-.1.4-.3-.2-.6-1.3-.5-1.1 0-1.4.3-.6.6zm98 4c2.9.2 7.4.2 10 0 2.6-.2.2-.3-5.3-.3s-7.6.1-4.7.3zm-11 1c.7.3 1.6.2 1.9-.1.4-.3-.2-.6-1.3-.5-1.1 0-1.4.3-.6.6zm30 0c.6.2 1.8.2 2.5 0 .6-.3.1-.5-1.3-.5-1.4 0-1.9.2-1.2.5zm34.2.7c0 .2.8 1 1.8 1.7 1.5 1.3 1.6 1.2.3-.4s-2.1-2.1-2.1-1.3zm63 3.1c1.3 1.4 2.6 2.5 2.8 2.5.3 0-.5-1.1-1.8-2.5s-2.6-2.5-2.8-2.5c-.3 0 .5 1.1 1.8 2.5zm-336.6.7-1.9 2.3 2.3-1.9c2.1-1.8 2.7-2.6 1.9-2.6-.2 0-1.2 1-2.3 2.2zm295.6-.8c0 .2.8 1 1.8 1.7 1.5 1.3 1.6 1.2.3-.4s-2.1-2.1-2.1-1.3zm41 3.1c1.3 1.4 2.6 2.5 2.8 2.5.3 0-.5-1.1-1.8-2.5s-2.6-2.5-2.8-2.5c-.3 0 .5 1.1 1.8 2.5zM333.5 43c3.8 3.8 7.2 7 7.4 7 .3 0-2.6-3.2-6.4-7-3.8-3.9-7.2-7-7.4-7-.3 0 2.6 3.1 6.4 7zM46.9 38.7c-1.3 1.6-1.2 1.7.4.4 1.6-1.3 2.1-2.1 1.3-2.1-.2 0-1 .8-1.7 1.7zm34 0c-1.3 1.6-1.2 1.7.4.4.9-.7 1.7-1.5 1.7-1.7 0-.8-.8-.3-2.1 1.3zm266.1.7c0 .2.8 1 1.8 1.7 1.5 1.3 1.6 1.2.3-.4s-2.1-2.1-2.1-1.3zM41.9 41.7c-1.3 1.6-1.2 1.7.4.4 1.6-1.3 2.1-2.1 1.3-2.1-.2 0-1 .8-1.7 1.7zm277.2-1.3c.2.2 1.5.9 2.9 1.5 2.4 1.1 2.4 1.1.6-.3-1.6-1.3-4.9-2.4-3.5-1.2zm69.9 0c0 .2.8 1 1.8 1.7 1.5 1.3 1.6 1.2.3-.4s-2.1-2.1-2.1-1.3zM74.9 43.7l-2.4 2.8 2.8-2.4c2.5-2.3 3.2-3.1 2.4-3.1-.2 0-1.4 1.2-2.8 2.7zm48.1-1.2c-1.4.8-2 1.4-1.5 1.4.6 0 2.1-.6 3.5-1.4 1.4-.8 2.1-1.4 1.5-1.4-.5 0-2.1.6-3.5 1.4zM269 46c0 1.2.8 1.2 3.5 0 1.8-.8 1.7-.9-.7-.9-1.6-.1-2.8.3-2.8.9zm9.3-.3c1.5.2 3.9.2 5.5 0 1.5-.2.2-.4-2.8-.4s-4.3.2-2.7.4zm12.5 1c.6.2 1.8.2 2.5 0 .6-.3.1-.5-1.3-.5-1.4 0-1.9.2-1.2.5zm-251.9 2c-1.3 1.6-1.2 1.7.4.4.9-.7 1.7-1.5 1.7-1.7 0-.8-.8-.3-2.1 1.3zm72.5-.1c-1.8 1.4-1.8 1.5.4.4 1.2-.6 2.2-1.3 2.2-1.5 0-.8-.5-.6-2.6 1.1zm185.4-.9c.7.3 1.6.2 1.9-.1.4-.3-.2-.6-1.3-.5-1.1 0-1.4.3-.6.6zm-71 3c.6.2 1.8.2 2.5 0 .6-.3.1-.5-1.3-.5-1.4 0-1.9.2-1.2.5zm7.5 0c.9.2 2.5.2 3.5 0 .9-.3.1-.5-1.8-.5-1.9 0-2.7.2-1.7.5zm103.7-.3c0 .2.8 1 1.8 1.7 1.5 1.3 1.6 1.2.3-.4s-2.1-2.1-2.1-1.3zm5.6 3.4c-.3.6-.1 1.4.5 1.7 1.5 1 2.5-.3 1.2-1.6-.7-.7-1.3-.7-1.7-.1zM255.5 57c-.3.5-.1 1 .4 1 .6 0 1.1-.5 1.1-1 0-.6-.2-1-.4-1-.3 0-.8.4-1.1 1zM58.9 59.7l-2.4 2.8 2.8-2.4c2.5-2.3 3.2-3.1 2.4-3.1-.2 0-1.4 1.2-2.8 2.7zM299 60c.8.5 2 1 2.5 1 .6 0 .3-.5-.5-1s-1.9-1-2.5-1c-.5 0-.3.5.5 1zm3.5 2c-.3.5-.1 1 .4 1 .6 0 1.1-.5 1.1-1 0-.6-.2-1-.4-1-.3 0-.8.4-1.1 1zm-6.7 1.7c.7.3 1.6.2 1.9-.1.4-.3-.2-.6-1.3-.5-1.1 0-1.4.3-.6.6zm-241.9 2c-1.3 1.6-1.2 1.7.4.4.9-.7 1.7-1.5 1.7-1.7 0-.8-.8-.3-2.1 1.3zm236.9-1c.7.3 1.6.2 1.9-.1.4-.3-.2-.6-1.3-.5-1.1 0-1.4.3-.6.6zm43.2.7c0 .2.8 1 1.8 1.7 1.5 1.3 1.6 1.2.3-.4s-2.1-2.1-2.1-1.3zM49.9 70.7c-1.3 1.6-1.2 1.7.4.4.9-.7 1.7-1.5 1.7-1.7 0-.8-.8-.3-2.1 1.3zm25.6 3.5-5 5.3 5.3-5c4.8-4.6 5.7-5.5 4.9-5.5-.1 0-2.5 2.4-5.2 5.2zM408 71c.6 1.1 1.3 2 1.6 2 .2 0 0-.9-.6-2s-1.3-2-1.6-2c-.2 0 0 .9.6 2zM16.7 80.4c-.4.9-.3 1.5.2 1.1.5-.3 1.1 0 1.3.7.3.7.7.5 1.1-.6.4-.9.3-1.5-.2-1.1-.5.3-1.1 0-1.3-.7-.3-.7-.7-.5-1.1.6zm398.3-.5c0 .6.4 1.3 1 1.6.6.3.7-.1.4-.9-.7-1.8-1.4-2.1-1.4-.7zm-64 2.6c1.3 1.4 2.6 2.5 2.8 2.5.3 0-.5-1.1-1.8-2.5s-2.6-2.5-2.8-2.5c-.3 0 .5 1.1 1.8 2.5zm-250-.1c0 .2.7.6 1.5 1 .8.3 1.5.1 1.5-.4 0-.6-.7-1-1.5-1s-1.5.2-1.5.4zm317 3.1c0 .5.5 1.7 1 2.5s1 1 1 .5c0-.6-.5-1.7-1-2.5s-1-1.1-1-.5zm-221.1 3.2c-1.3 1.6-1.2 1.7.4.4.9-.7 1.7-1.5 1.7-1.7 0-.8-.8-.3-2.1 1.3zM355 87.4c0 .2.8 1 1.8 1.7 1.5 1.3 1.6 1.2.3-.4s-2.1-2.1-2.1-1.3zM36 92c-.6 1.1-.8 2-.6 2 .3 0 1-.9 1.6-2 .6-1.1.8-2 .6-2-.3 0-1 .9-1.6 2zm322-.6c0 .2.8 1 1.8 1.7 1.5 1.3 1.6 1.2.3-.4s-2.1-2.1-2.1-1.3zm-172.5 7.8-5 5.3 5.3-5c4.8-4.6 5.7-5.5 4.9-5.5-.1 0-2.5 2.4-5.2 5.2zm188.6-2.6c0 1.1.3 1.4.6.6.3-.7.2-1.6-.1-1.9-.3-.4-.6.2-.5 1.3zm-151.2 1.1c-1.3 1.6-1.2 1.7.4.4 1.6-1.3 2.1-2.1 1.3-2.1-.2 0-1 .8-1.7 1.7zm-10.4 9.5-6 6.3 6.3-6c3.4-3.3 6.2-6.1 6.2-6.2 0-.8-1 .1-6.5 5.9zm162.8-1.7c0 2.2.2 3 .4 1.7.2-1.2.2-3 0-4-.3-.9-.5.1-.4 2.3zm-199.9 4.7-1.9 2.3 2.3-1.9c2.1-1.8 2.7-2.6 1.9-2.6-.2 0-1.2 1-2.3 2.2zm131.7-.6c0 1.1.3 1.4.6.6.3-.7.2-1.6-.1-1.9-.3-.4-.6.2-.5 1.3zm19.1 3.4c0 1.4.2 1.9.5 1.2.2-.6.2-1.8 0-2.5-.3-.6-.5-.1-.5 1.3zm2.5-.9c.7.7 1.5 1 1.8.7.3-.3-.2-.9-1.2-1.2-1.4-.6-1.5-.5-.6.5zm46.3 0c0 .5-.4.7-1 .4-1.4-.9-1.2.1.3 1.3 1 .8 1.3.6 1.4-.9.1-1 0-1.9-.3-1.9-.2 0-.4.5-.4 1.1zm-42.2 1.6c.7.3 1.6.2 1.9-.1.4-.3-.2-.6-1.3-.5-1.1 0-1.4.3-.6.6zm-161.9 2c-1.3 1.6-1.2 1.7.4.4.9-.7 1.7-1.5 1.7-1.7 0-.8-.8-.3-2.1 1.3zm168.4-1c.9.2 2.5.2 3.5 0 .9-.3.1-.5-1.8-.5-1.9 0-2.7.2-1.7.5zm-102.3.7c0 .8 5.1 1.3 5.6.5.3-.5-.9-.9-2.5-.9-1.7 0-3.1.2-3.1.4zm115.3.3c.9.2 2.3.2 3 0 .6-.3-.1-.5-1.8-.5-1.6 0-2.2.2-1.2.5zm-123.5 1c.6.2 1.8.2 2.5 0 .6-.3.1-.5-1.3-.5-1.4 0-1.9.2-1.2.5zm-7 1c.7.3 1.6.2 1.9-.1.4-.3-.2-.6-1.3-.5-1.1 0-1.4.3-.6.6zm106.3 2.9c0 1.1.3 1.4.6.6.3-.7.2-1.6-.1-1.9-.3-.4-.6.2-.5 1.3zm25.2 4.9c0 2.7.2 3.8.4 2.2.2-1.5.2-3.7 0-5-.2-1.2-.4 0-.4 2.8zm-71.4-1.8c-1.3 1.6-1.2 1.7.4.4 1.6-1.3 2.1-2.1 1.3-2.1-.2 0-1 .8-1.7 1.7zM200 125c-.9.6-1 1-.3 1 .6 0 1.5-.5 1.8-1 .8-1.2.4-1.2-1.5 0zm77.9 1.7c-1.3 1.6-1.2 1.7.4.4.9-.7 1.7-1.5 1.7-1.7 0-.8-.8-.3-2.1 1.3zm-276.8.9c0 1.1.3 1.4.6.6.3-.7.2-1.6-.1-1.9-.3-.4-.6.2-.5 1.3zm49.7-.9c.7.3 1.6.2 1.9-.1.4-.3-.2-.6-1.3-.5-1.1 0-1.4.3-.6.6zm284.7 2.3c1 1.1 2 2 2.3 2 .3 0-.3-.9-1.3-2s-2-2-2.3-2c-.3 0 .3.9 1.3 2zm-32.3 1.5c0 1.6.2 2.2.5 1.2.2-.9.2-2.3 0-3-.3-.6-.5.1-.5 1.8zm-81.8.7-1.9 2.3 2.3-1.9c2.1-1.8 2.7-2.6 1.9-2.6-.2 0-1.2 1-2.3 2.2zm46.1 5-6 6.3 6.3-6c5.8-5.5 6.7-6.5 5.9-6.5-.1 0-2.9 2.8-6.2 6.2zm-60 8-9 9.3 9.3-9c5-4.9 9.2-9.1 9.2-9.2 0-.8-1.2.4-9.5 8.9zm94.7-6.7c0 1.6.2 2.2.5 1.2.2-.9.2-2.3 0-3-.3-.6-.5.1-.5 1.8zm-276.3 4.2-2.4 2.8 2.8-2.4c1.5-1.4 2.7-2.6 2.7-2.8 0-.8-.8-.1-3.1 2.4zm360.1.2c0 .6.4 1.3 1 1.6.6.3.7-.1.4-.9-.7-1.8-1.4-2.1-1.4-.7zm-233.4 3.6c-.9 2.6-.7 3.2.5 1.2.6-1 .9-2.1.6-2.3-.2-.3-.7.2-1.1 1.1zm22.7-.8c1.8.5 1.8.5 0 2.6l-1.8 2.2 2.2-1.9c2.4-2 2.2-3.7-.5-3.5-1.5.1-1.4.2.1.6zm125.9 2.3c0 1.9.2 2.7.5 1.7.2-.9.2-2.5 0-3.5-.3-.9-.5-.1-.5 1.8zm-43.3-.3c-1.3 1.6-1.2 1.7.4.4 1.6-1.3 2.1-2.1 1.3-2.1-.2 0-1 .8-1.7 1.7zm130.7.6c.3 1 .9 1.5 1.2 1.2.3-.3 0-1.1-.7-1.8-1-.9-1.1-.8-.5.6zm-133.7 3.4c-1.3 1.6-1.2 1.7.4.4.9-.7 1.7-1.5 1.7-1.7 0-.8-.8-.3-2.1 1.3zm-38.5.4c-.4.7-.3.9.4.5.5-.3 1.3 0 1.5.6.4.9.6 1 .6.1.1-1.7-1.6-2.5-2.5-1.2zm-67.1 3.6c.1 1.7.4 1.9 1.4 1.1 1.5-1.2 1.8-2.2.4-1.4-.5.4-1.1 0-1.4-.6-.3-.7-.4-.3-.4.9zm62.1.5-1.9 2.3 2.3-1.9c2.1-1.8 2.7-2.6 1.9-2.6-.2 0-1.2 1-2.3 2.2zm-198.3 2.4c0 1.1.3 1.4.6.6.3-.7.2-1.6-.1-1.9-.3-.4-.6.2-.5 1.3zm63 0c0 1.1.3 1.4.6.6.3-.7.2-1.6-.1-1.9-.3-.4-.6.2-.5 1.3zm224.2 7.4c0 3.6.2 5 .4 3.2.2-1.7.2-4.7 0-6.5-.2-1.7-.4-.3-.4 3.3zm-51.8-3.9c-.4.6-.5 1.2-.2 1.5.2.3.7-.2 1-1.1.7-1.7.1-2-.8-.4zM75.2 163c0 1.4.2 1.9.5 1.2.2-.6.2-1.8 0-2.5-.3-.6-.5-.1-.5 1.3zm199.7 1.7-2.4 2.8 3-2.5c1.7-1.4 3.2-2.6 3.4-2.8.2-.1 0-.2-.6-.2-.5 0-2 1.2-3.4 2.7zm-262.9.8c.1 2.6.2 2.8 1.1 1.2.8-1.4.8-2.2 0-3-.8-.8-1.1-.3-1.1 1.8zm188.9.2-2.4 2.8 2.8-2.4c2.5-2.3 3.2-3.1 2.4-3.1-.2 0-1.4 1.2-2.8 2.7zm-162.8.9c0 1.1.3 1.4.6.6.3-.7.2-1.6-.1-1.9-.3-.4-.6.2-.5 1.3zm36.1 3.9c0 1.6.2 2.2.5 1.2.2-.9.2-2.3 0-3-.3-.6-.5.1-.5 1.8zm195.2-.3-1.9 2.3 2.3-1.9c1.2-1.1 2.2-2.1 2.2-2.3 0-.8-.8-.2-2.6 1.9zm9.9 4.8c0 2.5.2 3.5.4 2.2.2-1.2.2-3.2 0-4.5-.2-1.2-.4-.2-.4 2.3zm-61.1-1c0 1.4.2 1.9.5 1.2.2-.6.2-1.8 0-2.5-.3-.6-.5-.1-.5 1.3zm145.8.6c0 .5 1.4 2.3 3.2 4 1.7 1.6 2.7 2.2 2.2 1.4-.5-.8-.9-1.8-.9-2.3 0-.4-.3-.6-.7-.5-.4.2-1.4-.6-2.2-1.7-.9-1.1-1.6-1.5-1.6-.9zM36.2 178c0 1.4.2 1.9.5 1.2.2-.6.2-1.8 0-2.5-.3-.6-.5-.1-.5 1.3zm37.1 2.5c0 2.2.2 3 .4 1.7.2-1.2.2-3 0-4-.3-.9-.5.1-.4 2.3zm145.8.1c0 1.1.3 1.4.6.6.3-.7.2-1.6-.1-1.9-.3-.4-.6.2-.5 1.3zm22 0c0 1.1.3 1.4.6.6.3-.7.2-1.6-.1-1.9-.3-.4-.6.2-.5 1.3zm60.1 2.4c0 1.9.2 2.7.5 1.7.2-.9.2-2.5 0-3.5-.3-.9-.5-.1-.5 1.8zm-266 2c0 1.9.2 2.7.5 1.7.2-.9.2-2.5 0-3.5-.3-.9-.5-.1-.5 1.8zm184.9-.4c0 1.1.3 1.4.6.6.3-.7.2-1.6-.1-1.9-.3-.4-.6.2-.5 1.3zm20 0c0 1.1.3 1.4.6.6.3-.7.2-1.6-.1-1.9-.3-.4-.6.2-.5 1.3zm40.1 2.4c0 1.9.2 2.7.5 1.7.2-.9.2-2.5 0-3.5-.3-.9-.5-.1-.5 1.8zm117-1c0 1.4.2 1.9.5 1.2.2-.6.2-1.8 0-2.5-.3-.6-.5-.1-.5 1.3zm-138.6.5c-.9 2.6-.7 3.2.5 1.2.6-1 .9-2.1.6-2.3-.2-.3-.7.2-1.1 1.1zm116.4-1.1c0 .2.8 1 1.8 1.7 1.5 1.3 1.6 1.2.3-.4s-2.1-2.1-2.1-1.3zm36.1 3.2c0 1.1.3 1.4.6.6.3-.7.2-1.6-.1-1.9-.3-.4-.6.2-.5 1.3zm-172 2c0 1.1.3 1.4.6.6.3-.7.2-1.6-.1-1.9-.3-.4-.6.2-.5 1.3zm63.1.4c0 1.4.2 1.9.5 1.2.2-.6.2-1.8 0-2.5-.3-.6-.5-.1-.5 1.3zm-267.9 5c0 2.5.2 3.5.4 2.2.2-1.2.2-3.2 0-4.5-.2-1.2-.4-.2-.4 2.3zm348.7-2.6c0 .2.8 1 1.8 1.7 1.5 1.3 1.6 1.2.3-.4s-2.1-2.1-2.1-1.3zM204.5 195c-.3.6.1.7.9.4 1.8-.7 2.1-1.4.7-1.4-.6 0-1.3.4-1.6 1zm76.6.6c0 1.1.3 1.4.6.6.3-.7.2-1.6-.1-1.9-.3-.4-.6.2-.5 1.3zM72.2 199c0 1.4.2 1.9.5 1.2.2-.6.2-1.8 0-2.5-.3-.6-.5-.1-.5 1.3zm166.2 9c0 6.3.1 8.9.3 5.7.2-3.1.2-8.3 0-11.5-.2-3.1-.3-.5-.3 5.8zm-54.2-7c0 1.4.2 1.9.5 1.2.2-.6.2-1.8 0-2.5-.3-.6-.5-.1-.5 1.3zm97.9 1.6c0 1.1.3 1.4.6.6.3-.7.2-1.6-.1-1.9-.3-.4-.6.2-.5 1.3zm-29 1c0 1.1.3 1.4.6.6.3-.7.2-1.6-.1-1.9-.3-.4-.6.2-.5 1.3zm30 4c0 1.1.3 1.4.6.6.3-.7.2-1.6-.1-1.9-.3-.4-.6.2-.5 1.3zm107.1.9c0 1.6.2 2.2.5 1.2.2-.9.2-2.3 0-3-.3-.6-.5.1-.5 1.8zm-206.9 2c0 2.2.2 3 .4 1.7.2-1.2.2-3 0-4-.3-.9-.5.1-.4 2.3zm68.9-1.5c0 1.4.2 1.9.5 1.2.2-.6.2-1.8 0-2.5-.3-.6-.5-.1-.5 1.3zm64.7.7-2.4 2.8 3-2.5c1.7-1.4 3.2-2.6 3.4-2.8.2-.1 0-.2-.6-.2-.5 0-2 1.2-3.4 2.7zm-119.6 4.8c0 2.2.2 3 .4 1.7.2-1.2.2-3 0-4-.3-.9-.5.1-.4 2.3zm-51.2-.9c0 1.1.3 1.4.6.6.3-.7.2-1.6-.1-1.9-.3-.4-.6.2-.5 1.3zm179.7.1c.6.2 1.8.2 2.5 0 .6-.3.1-.5-1.3-.5-1.4 0-1.9.2-1.2.5zM73.2 217c0 1.9.2 2.7.5 1.7.2-.9.2-2.5 0-3.5-.3-.9-.5-.1-.5 1.8zm178.1 6c0 4.1.2 5.8.4 3.7.2-2 .2-5.4 0-7.5-.2-2-.4-.3-.4 3.8zm-106.1-4c0 1.4.2 1.9.5 1.2.2-.6.2-1.8 0-2.5-.3-.6-.5-.1-.5 1.3zm38.9 1.6c0 1.1.3 1.4.6.6.3-.7.2-1.6-.1-1.9-.3-.4-.6.2-.5 1.3zm13.2 1.9c0 2.2.2 3 .4 1.7.2-1.2.2-3 0-4-.3-.9-.5.1-.4 2.3zm-163 1.5c0 2.5.2 3.5.4 2.2.2-1.2.2-3.2 0-4.5-.2-1.2-.4-.2-.4 2.3zm203.2-2c.3.5.8 1 1.1 1 .2 0 .4-.5.4-1 0-.6-.5-1-1.1-1-.5 0-.7.4-.4 1zm-93.3 4.5c0 1.6.2 2.2.5 1.2.2-.9.2-2.3 0-3-.3-.6-.5.1-.5 1.8zm-70 .5c0 1.4.2 1.9.5 1.2.2-.6.2-1.8 0-2.5-.3-.6-.5-.1-.5 1.3zm285.8 2.5c1.3 1.4 2.6 2.5 2.8 2.5.3 0-.5-1.1-1.8-2.5s-2.6-2.5-2.8-2.5c-.3 0 .5 1.1 1.8 2.5zm32.4-.3-1.9 2.3 2.3-1.9c1.2-1.1 2.2-2.1 2.2-2.3 0-.8-.8-.2-2.6 1.9zm-230.3 2.4c0 1.1.3 1.4.6.6.3-.7.2-1.6-.1-1.9-.3-.4-.6.2-.5 1.3zM75.2 234c0 1.4.2 1.9.5 1.2.2-.6.2-1.8 0-2.5-.3-.6-.5-.1-.5 1.3zm-40 1c0 1.4.2 1.9.5 1.2.2-.6.2-1.8 0-2.5-.3-.6-.5-.1-.5 1.3zm125.9 1.6c0 1.1.3 1.4.6.6.3-.7.2-1.6-.1-1.9-.3-.4-.6.2-.5 1.3zm91.1.4c0 1.4.2 1.9.5 1.2.2-.6.2-1.8 0-2.5-.3-.6-.5-.1-.5 1.3zm-108.9 6c0 4.1.2 5.8.4 3.7.2-2 .2-5.4 0-7.5-.2-2-.4-.3-.4 3.8zm-67.1-3c0 1.4.2 1.9.5 1.2.2-.6.2-1.8 0-2.5-.3-.6-.5-.1-.5 1.3zm289.1 4.5c0 3.3.2 4.5.4 2.7.2-1.8.2-4.5 0-6s-.4 0-.4 3.3zm-205.2-2.9c0 1.1.3 1.4.6.6.3-.7.2-1.6-.1-1.9-.3-.4-.6.2-.5 1.3zm-124 1c0 1.1.3 1.4.6.6.3-.7.2-1.6-.1-1.9-.3-.4-.6.2-.5 1.3zm336.1 2.4c0 1.4.2 1.9.5 1.2.2-.6.2-1.8 0-2.5-.3-.6-.5-.1-.5 1.3zm-295.1.6c0 1.1.3 1.4.6.6.3-.7.2-1.6-.1-1.9-.3-.4-.6.2-.5 1.3zm272-.3c.2.1 1.3.9 2.4 1.7 1.9 1.4 1.9 1.4.6-.3-.7-.9-1.8-1.7-2.4-1.7-.6 0-.8.1-.6.3zm-312 3.3c0 1.1.3 1.4.6.6.3-.7.2-1.6-.1-1.9-.3-.4-.6.2-.5 1.3zm335.2 7.4c0 4.1.2 5.8.4 3.7.2-2 .2-5.4 0-7.5-.2-2-.4-.3-.4 3.8zM202 254.5c1.9 1.9 3.6 3.5 3.9 3.5.3 0-1-1.6-2.9-3.5s-3.6-3.5-3.9-3.5c-.3 0 1 1.6 2.9 3.5zm-43.9-.9c0 1.1.3 1.4.6.6.3-.7.2-1.6-.1-1.9-.3-.4-.6.2-.5 1.3zm191.1 1.4c0 1.4.2 1.9.5 1.2.2-.6.2-1.8 0-2.5-.3-.6-.5-.1-.5 1.3zm-109.2-.6c0 .2.8 1 1.8 1.7 1.5 1.3 1.6 1.2.3-.4s-2.1-2.1-2.1-1.3zm-200.9 3.2c0 1.1.3 1.4.6.6.3-.7.2-1.6-.1-1.9-.3-.4-.6.2-.5 1.3zm105.1.9c0 1.6.2 2.2.5 1.2.2-.9.2-2.3 0-3-.3-.6-.5.1-.5 1.8zm187.3-.5c1 1.1 2 2 2.3 2 .3 0-.3-.9-1.3-2s-2-2-2.3-2c-.3 0 .3.9 1.3 2zm-174.3 3.5c0 1.6.2 2.2.5 1.2.2-.9.2-2.3 0-3-.3-.6-.5.1-.5 1.8zm192.9-.9c0 1.1.3 1.4.6.6.3-.7.2-1.6-.1-1.9-.3-.4-.6.2-.5 1.3zM247 263.4c0 .2.8 1 1.8 1.7 1.5 1.3 1.6 1.2.3-.4s-2.1-2.1-2.1-1.3zm-101.9 2.2c0 1.1.3 1.4.6.6.3-.7.2-1.6-.1-1.9-.3-.4-.6.2-.5 1.3zm212 1c0 1.1.3 1.4.6.6.3-.7.2-1.6-.1-1.9-.3-.4-.6.2-.5 1.3zm-48.1-.3c0 .2 1.5 1.6 3.3 3.3l3.2 2.9-2.9-3.3c-2.8-3-3.6-3.7-3.6-2.9zM156.2 270c0 1.4.2 1.9.5 1.2.2-.6.2-1.8 0-2.5-.3-.6-.5-.1-.5 1.3zm95.8-.6c0 .2.8 1 1.8 1.7 1.5 1.3 1.6 1.2.3-.4s-2.1-2.1-2.1-1.3zm93 2c0 .2.8 1 1.8 1.7 1.5 1.3 1.6 1.2.3-.4s-2.1-2.1-2.1-1.3zm75.6 1.1c-.9 2.6-.7 3.2.5 1.2.6-1 .9-2.1.6-2.3-.2-.3-.7.2-1.1 1.1zm-406.6 1c0 .5.5 1.7 1 2.5s1 1 1 .5c0-.6-.5-1.7-1-2.5s-1-1.1-1-.5zm244 3c1.3 1.4 2.6 2.5 2.8 2.5.3 0-.5-1.1-1.8-2.5s-2.6-2.5-2.8-2.5c-.3 0 .5 1.1 1.8 2.5zm101.1-.9c0 1.1.3 1.4.6.6.3-.7.2-1.6-.1-1.9-.3-.4-.6.2-.5 1.3zm-203.9 2.9c0 1.6.2 2.2.5 1.2.2-.9.2-2.3 0-3-.3-.6-.5.1-.5 1.8zM98.3 289c0 4.7.2 6.6.4 4.2.2-2.3.2-6.1 0-8.5-.2-2.3-.4-.4-.4 4.3zm165.8-6.4c0 1.1.3 1.4.6.6.3-.7.2-1.6-.1-1.9-.3-.4-.6.2-.5 1.3zM412 286c-.6 1.1-.8 2-.6 2 .3 0 1-.9 1.6-2 .6-1.1.8-2 .6-2-.3 0-1 .9-1.6 2zm-257.8 2c0 1.9.2 2.7.5 1.7.2-.9.2-2.5 0-3.5-.3-.9-.5-.1-.5 1.8zM21 288c.6 1.1 1.3 2 1.6 2 .2 0 0-.9-.6-2s-1.3-2-1.6-2c-.2 0 0 .9.6 2zm333.8.7c.7.3 1.6.2 1.9-.1.4-.3-.2-.6-1.3-.5-1.1 0-1.4.3-.6.6zm11 2c.6.2 1.8.2 2.5 0 .6-.3.1-.5-1.3-.5-1.4 0-1.9.2-1.2.5zm-252.8.7c0 .2.8 1 1.8 1.7 1.5 1.3 1.6 1.2.3-.4s-2.1-2.1-2.1-1.3zm5 6c0 .2.8 1 1.8 1.7 1.5 1.3 1.6 1.2.3-.4s-2.1-2.1-2.1-1.3zm-19.9 3.4c-.1 1.5-.5 2.1-1.3 1.6-1-.5-1-.4-.1.6 1.7 1.8 2.6.8 2-2.2l-.4-2.3-.2 2.3zm35.4 13.2c4.4 4.4 8.2 8 8.5 8 .2 0-3.1-3.6-7.5-8s-8.2-8-8.5-8c-.2 0 3.1 3.6 7.5 8zM31 308.4c0 .2.8 1 1.8 1.7 1.5 1.3 1.6 1.2.3-.4s-2.1-2.1-2.1-1.3zm347.5 4.5c.3.3-2.9 4.1-7.2 8.5l-7.8 8.1 8.8-8.5c4.8-4.6 8.7-8.5 8.7-8.6 0 0-.7-.1-1.5-.1s-1.3.3-1 .6zm15.4 1.8c-1.3 1.6-1.2 1.7.4.4 1.6-1.3 2.1-2.1 1.3-2.1-.2 0-1 .8-1.7 1.7zm1 2c-1.3 1.6-1.2 1.7.4.4 1.6-1.3 2.1-2.1 1.3-2.1-.2 0-1 .8-1.7 1.7zm-26.5.9c-1.8 1.4-1.8 1.5.4.4 1.2-.6 2.2-1.3 2.2-1.5 0-.8-.5-.6-2.6 1.1zm22.5 1.1c-1.3 1.6-1.2 1.7.4.4 1.6-1.3 2.1-2.1 1.3-2.1-.2 0-1 .8-1.7 1.7zM45.5 324c1 1.1 2 2 2.3 2 .3 0-.3-.9-1.3-2s-2-2-2.3-2c-.3 0 .3.9 1.3 2zm99 0c1 1.1 2 2 2.3 2 .3 0-.3-.9-1.3-2s-2-2-2.3-2c-.3 0 .3.9 1.3 2zm241.9.2-1.9 2.3 2.3-1.9c1.2-1.1 2.2-2.1 2.2-2.3 0-.8-.8-.2-2.6 1.9zM45.5 327c1 1.1 2 2 2.3 2 .3 0-.3-.9-1.3-2s-2-2-2.3-2c-.3 0 .3.9 1.3 2zm26.5-1.6c0 .2.8 1 1.8 1.7 1.5 1.3 1.6 1.2.3-.4s-2.1-2.1-2.1-1.3zm314.4 1.8-1.9 2.3 2.3-1.9c1.2-1.1 2.2-2.1 2.2-2.3 0-.8-.8-.2-2.6 1.9zM53.5 333c2.1 2.2 4.1 4 4.4 4 .3 0-1.3-1.8-3.4-4-2.1-2.2-4.1-4-4.4-4-.3 0 1.3 1.8 3.4 4zm323.5 1.7-5.5 5.8 5.8-5.5c3.1-3 5.7-5.6 5.7-5.7 0-.8-1 .1-6 5.4zm-18.1-2c-1.3 1.6-1.2 1.7.4.4 1.6-1.3 2.1-2.1 1.3-2.1-.2 0-1 .8-1.7 1.7zM57.5 340c4.4 4.4 8.2 8 8.5 8 .2 0-3.1-3.6-7.5-8s-8.2-8-8.5-8c-.2 0 3.1 3.6 7.5 8zm316.5.7-8.5 8.8 8.8-8.5c4.8-4.6 8.7-8.6 8.7-8.7 0-.8-1.1.3-9 8.4zm-217-7.3c0 .2.8 1 1.8 1.7 1.5 1.3 1.6 1.2.3-.4s-2.1-2.1-2.1-1.3zm112.5 4.6c2 2.2 3.4 2.8 1.6.7-.6-.8-.8-1.7-.4-2 .3-.4-.2-.7-1.2-.7-1.7 0-1.7.1 0 2zm83.4-.3c-1.3 1.6-1.2 1.7.4.4 1.6-1.3 2.1-2.1 1.3-2.1-.2 0-1 .8-1.7 1.7zm-34.1 0c.7.3 1.6.2 1.9-.1.4-.3-.2-.6-1.3-.5-1.1 0-1.4.3-.6.6zm-5 1c.7.3 1.6.2 1.9-.1.4-.3-.2-.6-1.3-.5-1.1 0-1.4.3-.6.6zm-33 1c.6.2 1.8.2 2.5 0 .6-.3.1-.5-1.3-.5-1.4 0-1.9.2-1.2.5zm28 0c.7.3 1.6.2 1.9-.1.4-.3-.2-.6-1.3-.5-1.1 0-1.4.3-.6.6zm-17.5 1c2 .2 5.4.2 7.5 0 2-.2.3-.4-3.8-.4s-5.8.2-3.7.4zM65.5 345c2.1 2.2 4.1 4 4.4 4 .3 0-1.3-1.8-3.4-4-2.1-2.2-4.1-4-4.4-4-.3 0 1.3 1.8 3.4 4zm301.4-.3-3.4 3.8 3.8-3.4c3.4-3.3 4.2-4.1 3.4-4.1-.2 0-1.9 1.7-3.8 3.7zM88 342.3c0 .2 1.5 1.6 3.3 3.3l3.2 2.9-2.9-3.3c-2.8-3-3.6-3.7-3.6-2.9zm212 6.7c0 .5.5 1 1 1 .6 0 1-.5 1-1 0-.6-.4-1-1-1-.5 0-1 .4-1 1zm-201.5 3c1 1.1 2 2 2.3 2 .3 0-.3-.9-1.3-2s-2-2-2.3-2c-.3 0 .3.9 1.3 2zm-28.5-.6c0 .2.8 1 1.8 1.7 1.5 1.3 1.6 1.2.3-.4s-2.1-2.1-2.1-1.3zm3 0c0 .2.8 1 1.8 1.7 1.5 1.3 1.6 1.2.3-.4s-2.1-2.1-2.1-1.3zm284.4 1.8-1.9 2.3 2.3-1.9c1.2-1.1 2.2-2.1 2.2-2.3 0-.8-.8-.2-2.6 1.9zm2.5.5c-1.3 1.6-1.2 1.7.4.4 1.6-1.3 2.1-2.1 1.3-2.1-.2 0-1 .8-1.7 1.7zm-75.1 0c.7.3 1.6.2 1.9-.1.4-.3-.2-.6-1.3-.5-1.1 0-1.4.3-.6.6zm-9 2c.7.3 1.6.2 1.9-.1.4-.3-.2-.6-1.3-.5-1.1 0-1.4.3-.6.6zm-5 1c.7.3 1.6.2 1.9-.1.4-.3-.2-.6-1.3-.5-1.1 0-1.4.3-.6.6zm84.1 1c-1.3 1.6-1.2 1.7.4.4 1.6-1.3 2.1-2.1 1.3-2.1-.2 0-1 .8-1.7 1.7zm-144.1 0c.7.3 1.6.2 1.9-.1.4-.3-.2-.6-1.3-.5-1.1 0-1.4.3-.6.6zm55 0c.7.3 1.6.2 1.9-.1.4-.3-.2-.6-1.3-.5-1.1 0-1.4.3-.6.6zm-49 1c.6.2 1.8.2 2.5 0 .6-.3.1-.5-1.3-.5-1.4 0-1.9.2-1.2.5zm41 0c.6.2 1.8.2 2.5 0 .6-.3.1-.5-1.3-.5-1.4 0-1.9.2-1.2.5zm-31 1c1.2.2 3 .2 4 0 .9-.3-.1-.5-2.3-.4-2.2 0-3 .2-1.7.4zm20 0c1.2.2 3.2.2 4.5 0 1.2-.2.2-.4-2.3-.4s-3.5.2-2.2.4z"/><g stroke-width="0"><path d="M77.5 7.1C48.1 30.5 23.3 63.7 9.5 98 4.3 111-.1 125.3.1 129c.1 2 .2 2.1.6.5 1.1-5 6.8-22.7 9.5-29.5C24.5 63.9 50.3 29.9 81.9 5.6c4-3.1 6.7-5.6 5.9-5.6-.7 0-5.4 3.2-10.3 7.1zM187 1c0 .6-3.3 1-7.7 1-4.3 0-12.3.7-17.8 1.5C100.4 12.7 49.5 55 25 116.9c-4.5 11.2-10.4 33.2-11.4 42.1l-.7 5.5 2.5-5.7c3.6-8.6 9.2-16.3 14.9-20.9C35.2 134 49.8 126 52 126c.6 0-.1 2.2-1.4 4.8-6.2 12.2-12 33.2-14.7 53.2-1.7 12.1-1.7 40.7 0 53 1.7 12.2 7 33.3 11.1 43.5 14 35.2 38.9 65 71.3 85.1 7.8 4.9 9.4 5.5 13.4 5.2l4.5-.3-2.2-2.7c-3.5-4.5-13-20.1-12.6-20.6.3-.2 4.2 2.3 8.8 5.5 9.1 6.5 17.4 11.6 25.5 15.7l5.2 2.6h137l12.8-6.4c22.8-11.5 45.2-27.7 61.8-44.6l8-8.2-13.5 7c-37 19.4-67.4 25.9-91.1 19.7-2.9-.8-5.5-1.2-5.7-1-.8.8 6.5 4.6 12.6 6.5 3.5 1.1 9.2 2.5 12.8 3.2 3.5.6 6.4 1.5 6.4 1.8 0 .9-21.4 6.2-35.1 8.7-11.6 2.2-42.9 2.5-53.2.5-39.9-7.5-76.3-33.4-107.6-76.5-3.5-4.8-6.5-8.6-6.7-8.4-.2.2-.4 7.2-.5 15.5-.1 10.9-.5 15.2-1.3 14.9-3-1-15.3-35.3-19.6-54.7-4.9-22-6.6-55.1-4-77 3.1-25.3 11-52.2 22-74.7 3.8-7.6 6.7-14 6.5-14.2-.4-.3-3.3.6-26.2 8.7-7.9 2.8-14.5 4.7-14.8 4.3-.7-1.3 4.1-10.1 9-16.3C94 49.9 163.8 20.2 215.2 18.1l15.7-.6-10.6-8.8L209.8 0h-11.4c-6.9 0-11.4.4-11.4 1z"/><path d="M258.5.7c6.9 1.7 24 8 32.7 12.2 12.8 6 29 16.8 38.8 25.9 8.1 7.5 15.5 16 14.7 16.8-.3.3-3.4-1.6-6.9-4.1-12.2-9.1-30.8-17.1-46.6-20.1-10.9-2.1-29.2-1.8-38.4.5-12 3.1-23.1 9.4-27.7 15.9l-1.9 2.7 8.7.1c6.5 0 10.6.7 16.9 2.8 4.5 1.5 8.2 3 8.2 3.4 0 .4-4 2-8.9 3.6-41.2 12.8-81.8 51.4-98.2 93.4-.8 2-.4 1.9 4.4-1.3 5.6-3.8 20.1-8.9 22.5-8 1.2.4 1 1.1-1 3.3-7.5 7.9-17.4 26.9-23.2 44.3-6.4 19-8 29.1-8 49.9-.1 12.1.4 20.6 1.3 24.5 1.6 7.1 7.1 24.8 7.6 24.3.2-.1 1.3-8.6 2.5-18.8 4.7-40.3 11.1-65.4 22.5-88 11.2-22.3 28.9-42.5 52.8-60.6l10.2-7.7-8 .7c-11.8 1-20.7 3.1-27.7 6.5-3.5 1.6-6.5 2.8-6.7 2.5-1.6-1.5 10.4-16.1 20.4-24.7 20.9-18.1 50.7-32.9 74-36.8 3.9-.6 7.7-1.3 8.5-1.6 1.3-.4-16.4-9.1-28.2-13.9-2.7-1-4.8-2.3-4.8-2.8 0-1.4 22.6.1 29.5 1.9 25.4 6.6 45.3 22.3 66.8 52.7 5.4 7.6 9.9 13.8 10.1 13.8.1 0 .1-3-.1-6.8-1.9-35.7-26.5-75.2-62.9-101L303.7 0l-23.6.1c-13 .1-22.7.4-21.6.6zm86.1.1c.5.4 4.5 3.5 8.9 6.7 16.8 12.6 39.2 37.6 52.4 58.6 4.7 7.5 16.3 31.3 19.1 39.2 1 2.8 1.9 4.4 1.9 3.5.1-2.8-4.5-14.2-10.9-27-11.1-22.2-23.8-39.6-42-57.8-11.3-11.4-26.7-24-29.1-24-.8 0-.9.3-.3.8z"/><path d="M297 113.4c-32.1 21.8-46.9 39.5-54.6 65.3-2.3 7.6-2.8 11.3-3.3 26.8l-.6 18-3.6-5.5c-11.5-17.5-16.9-35.2-17-55.6 0-8.7-.3-11.3-1.2-10.7-4 2.3-10.7 8.8-16 15.3-19.3 23.9-21.9 53.2-6.8 76.1 4.5 6.9 16.1 19.3 14.8 15.9-.3-.8-2.2-5.4-4.2-10.2-9.7-23.4-9.9-40.7-.5-52.8 1-1.4 2.1-2.3 2.3-2 .3.3 3 5.8 6 12.3 6.6 13.8 17.1 31.8 25.6 43.7 6.8 9.6 25.2 32.2 25.8 31.7.2-.2-1.5-5.8-3.6-12.3-12.2-36.6-11.6-65.7 2-88.6 3.8-6.4 14.2-18.8 15.9-18.8.4 0 1.1 3.9 1.4 8.7 3.2 41.8 9.6 64.3 25.3 88.3 11.6 17.6 27.8 25.6 63.8 31.5 3.7.6 3.2.1-6.8-6.5-13.3-8.8-28.3-23-36.6-34.7-24.1-33.8-30.5-78.3-19.2-133.4 1.1-5.2 1.9-9.5 1.8-9.5-.1-.1-4.9 3-10.7 7zm30-.9c0 .8.6 3.6 1.2 6.1 1.7 6.3 8.9 12.2 18.7 15.4 4 1.2 7.4 2.1 7.6 1.8.3-.2 0-2-.5-3.9-1.4-4.8-1.2-9.5.5-12.9l1.5-2.9-5.3-.5c-2.8-.3-8.2-.8-11.8-1.1-3.6-.4-7.8-1.2-9.2-2-2.3-1.2-2.7-1.2-2.7 0z"/><path d="M380.1 130.5c-.2 2.4 4.2 16.1 10.2 32 9 23.9 9.4 27.5 2.8 27.5-3.3 0-13.2-4.7-21.3-10.1-6.2-4.1-6.2-4 4.4 6.2 5.8 5.7 11.4 12 12.4 13.9 2.5 4.9 2.3 13.4-.4 18.5-4.1 7.7-4.3 7.8-12.2 7.3-5.9-.5-8.5-1.3-16.3-5.4-22.8-11.9-26.7-13.6-30.9-14.1-4.8-.6-8.9 1-12.2 4.6l-1.9 2.1h6.3c7 0 15.7 2 23.3 5.4 7.3 3.3 17.3 10.9 19.3 14.8 2.4 4.4 3.3 21.8 1.3 21.8-.8 0-4.5-2.1-8.2-4.6-3.8-2.5-7.1-4.3-7.5-4-.9 1 1.8 16.4 4 22.1 1.1 3 2.9 6.2 4.1 7.2 1.9 1.8 2 1.7 1.3-1.7-1.6-8.9-1.9-15-.7-15 .6 0 3.8 1.3 7.1 3 3.3 1.6 6.2 3 6.5 3 .3 0 .5-4.9.5-10.9 0-13.1 1-14.8 10.7-19.2 6.7-3 14.8-9.1 15.6-11.8.3-.9 3.3-8.8 6.6-17.6 6.2-16.2 6.9-18.9 5.1-20-1.6-1-14.9-25.2-22.6-41-4-8.3-7.3-14.5-7.3-14zM.1 236.3c-.1 4.3 8.4 28.8 14.3 41.2 13.8 29.1 34.5 55.8 58.9 76.1 9.6 8.1 22.9 17.4 24.8 17.4.7 0-2.1-2.3-6.2-5.1-26.1-17.9-48.2-41.2-65.2-68.7-10.1-16.3-17.4-32.9-23.3-52.7-1.8-6.1-3.3-9.7-3.3-8.2zM423 263.6c-15.6 40.4-44.7 76.6-82.1 102.4-4 2.8-6.7 5-5.9 5 .7 0 4-1.9 7.4-4.1 29.9-20.3 57.2-51.4 73.5-83.7 5.2-10.2 11.2-25.2 10.9-26.9-.2-.9-1.9 2.4-3.8 7.3z"/></g><path fill="gray" d="M211 .4c0 .2.8 1 1.8 1.7 1.5 1.3 1.6 1.2.3-.4S211-.4 211 .4zM81.9 2.7c-1.3 1.6-1.2 1.7.4.4.9-.7 1.7-1.5 1.7-1.7 0-.8-.8-.3-2.1 1.3zm88.4-1c.9.2 2.5.2 3.5 0 .9-.3.1-.5-1.8-.5-1.9 0-2.7.2-1.7.5zm-8.5 1c.6.2 1.8.2 2.5 0 .6-.3.1-.5-1.3-.5-1.4 0-1.9.2-1.2.5zm-6 1c.7.3 1.6.2 1.9-.1.4-.3-.2-.6-1.3-.5-1.1 0-1.4.3-.6.6zm-77.9 2c-1.3 1.6-1.2 1.7.4.4.9-.7 1.7-1.5 1.7-1.7 0-.8-.8-.3-2.1 1.3zm139.6.3c1 1.1 2 2 2.3 2 .3 0-.3-.9-1.3-2s-2-2-2.3-2c-.3 0 .3.9 1.3 2zM353 4.4c0 .2.8 1 1.8 1.7 1.5 1.3 1.6 1.2.3-.4S353 3.6 353 4.4zm-39 2c0 .2.8 1 1.8 1.7 1.5 1.3 1.6 1.2.3-.4S314 5.6 314 6.4zm37 0c0 .2.8 1 1.8 1.7 1.5 1.3 1.6 1.2.3-.4S351 5.6 351 6.4zM72.9 9.7c-1.3 1.6-1.2 1.7.4.4.9-.7 1.7-1.5 1.7-1.7 0-.8-.8-.3-2.1 1.3zm286.6.3c1 1.1 2 2 2.3 2 .3 0-.3-.9-1.3-2s-2-2-2.3-2c-.3 0 .3.9 1.3 2zm-136 1c1 1.1 2 2 2.3 2 .3 0-.3-.9-1.3-2s-2-2-2.3-2c-.3 0 .3.9 1.3 2zM318 9.4c0 .2.8 1 1.8 1.7 1.5 1.3 1.6 1.2.3-.4S318 8.6 318 9.4zM74.4 12.2l-1.9 2.3 2.3-1.9c1.2-1.1 2.2-2.1 2.2-2.3 0-.8-.8-.2-2.6 1.9zM356 10.4c0 .2.8 1 1.8 1.7 1.5 1.3 1.6 1.2.3-.4s-2.1-2.1-2.1-1.3zm-30 6.1c1.9 1.9 3.6 3.5 3.9 3.5.3 0-1-1.6-2.9-3.5s-3.6-3.5-3.9-3.5c-.3 0 1 1.6 2.9 3.5zm41 0c1.9 1.9 3.6 3.5 3.9 3.5.3 0-1-1.6-2.9-3.5s-3.6-3.5-3.9-3.5c-.3 0 1 1.6 2.9 3.5zM63.9 17.7l-3.4 3.8 3.8-3.4c3.4-3.3 4.2-4.1 3.4-4.1-.2 0-1.9 1.7-3.8 3.7zM228 14.4c0 .2.8 1 1.8 1.7 1.5 1.3 1.6 1.2.3-.4s-2.1-2.1-2.1-1.3zM365.5 19c2.1 2.2 4.1 4 4.4 4 .3 0-1.3-1.8-3.4-4-2.1-2.2-4.1-4-4.4-4-.3 0 1.3 1.8 3.4 4zm-299.1.2-2.9 3.3 3.3-2.9c3-2.8 3.7-3.6 2.9-3.6-.2 0-1.6 1.5-3.3 3.2zm147.9-.5c3.2.2 8.1.2 11 0 2.9-.2.3-.3-5.8-.3-6 0-8.4.1-5.2.3zm-12.5 1c.6.2 1.8.2 2.5 0 .6-.3.1-.5-1.3-.5-1.4 0-1.9.2-1.2.5zm-7 1c.7.3 1.6.2 1.9-.1.4-.3-.2-.6-1.3-.5-1.1 0-1.4.3-.6.6zm-11 2c.7.3 1.6.2 1.9-.1.4-.3-.2-.6-1.3-.5-1.1 0-1.4.3-.6.6zM380 29.2c4.1 4.5 5 5.3 5 4.5 0-.2-2.1-2.3-4.7-4.7l-4.8-4.5 4.5 4.7zM50.9 30.7l-3.4 3.8 3.8-3.4c3.4-3.3 4.2-4.1 3.4-4.1-.2 0-1.9 1.7-3.8 3.7zm1.6 2.5-4 4.3 4.3-4c2.3-2.1 4.2-4 4.2-4.2 0-.8-.9 0-4.5 3.9zm207.3-3.5c.6.2 1.8.2 2.5 0 .6-.3.1-.5-1.3-.5-1.4 0-1.9.2-1.2.5zm23 0c.6.2 1.8.2 2.5 0 .6-.3.1-.5-1.3-.5-1.4 0-1.9.2-1.2.5zm93.2-.4c0 .2 1.5 1.6 3.3 3.3l3.2 2.9-2.9-3.3c-2.8-3-3.6-3.7-3.6-2.9zm-34 3.2c1.3 1.4 2.6 2.5 2.8 2.5.3 0-.5-1.1-1.8-2.5s-2.6-2.5-2.8-2.5c-.3 0 .5 1.1 1.8 2.5zm-47.2-.8c.7.3 1.6.2 1.9-.1.4-.3-.2-.6-1.3-.5-1.1 0-1.4.3-.6.6zm-210.9 4c-1.3 1.6-1.2 1.7.4.4.9-.7 1.7-1.5 1.7-1.7 0-.8-.8-.3-2.1 1.3zm155.5-.1c-1.8 1.4-1.8 1.4.6.3 3.1-1.4 3.6-1.9 2.4-1.9-.6 0-1.9.7-3 1.6zm86.1.4c1 1.1 2 2 2.3 2 .3 0-.3-.9-1.3-2s-2-2-2.3-2c-.3 0 .3.9 1.3 2zM43.9 38.7c-1.3 1.6-1.2 1.7.4.4 1.6-1.3 2.1-2.1 1.3-2.1-.2 0-1 .8-1.7 1.7zm35.5.5-1.9 2.3 2.3-1.9c1.2-1.1 2.2-2.1 2.2-2.3 0-.8-.8-.2-2.6 1.9zM346 37.4c0 .2.8 1 1.8 1.7 1.5 1.3 1.6 1.2.3-.4s-2.1-2.1-2.1-1.3zm42.5 1.6c1 1.1 2 2 2.3 2 .3 0-.3-.9-1.3-2s-2-2-2.3-2c-.3 0 .3.9 1.3 2zM45.4 41.2l-1.9 2.3 2.3-1.9c2.1-1.8 2.7-2.6 1.9-2.6-.2 0-1.2 1-2.3 2.2zm341.1-.2c1 1.1 2 2 2.3 2 .3 0-.3-.9-1.3-2s-2-2-2.3-2c-.3 0 .3.9 1.3 2zm-160 4.2-4 4.3 4.3-4c3.9-3.6 4.7-4.5 3.9-4.5-.2 0-2.1 1.9-4.2 4.2zm-187.6-.5c-1.3 1.6-1.2 1.7.4.4.9-.7 1.7-1.5 1.7-1.7 0-.8-.8-.3-2.1 1.3zm27.6 6.5-8 8.3 8.3-8c7.6-7.4 8.7-8.5 7.9-8.5-.1 0-3.8 3.7-8.2 8.2zM392 43.4c0 .2.8 1 1.8 1.7 1.5 1.3 1.6 1.2.3-.4s-2.1-2.1-2.1-1.3zm-277.6 4.2c-1.8 1.4-1.8 1.5.4.4 1.2-.6 2.2-1.3 2.2-1.5 0-.8-.5-.6-2.6 1.1zm171.9-.9c.9.2 2.3.2 3 0 .6-.3-.1-.5-1.8-.5-1.6 0-2.2.2-1.2.5zm7.5 1c.7.3 1.6.2 1.9-.1.4-.3-.2-.6-1.3-.5-1.1 0-1.4.3-.6.6zm44.8 1.3c.5.8.9 1.9.9 2.4s1.1 1.6 2.4 2.5c2.3 1.5 2.4 1.5 1.3-.4-.5-1.1-2-2.9-3.3-4-1.2-1.1-1.8-1.3-1.3-.5zM222 51c0 .6.7 1 1.5 1s1.5-.2 1.5-.4-.7-.6-1.5-1c-.8-.3-1.5-.1-1.5.4zm7.8-.3c.7.3 1.6.2 1.9-.1.4-.3-.2-.6-1.3-.5-1.1 0-1.4.3-.6.6zM328 61.4c0 .2.8 1 1.8 1.7 1.5 1.3 1.6 1.2.3-.4s-2.1-2.1-2.1-1.3zM54.9 63.7c-1.3 1.6-1.2 1.7.4.4.9-.7 1.7-1.5 1.7-1.7 0-.8-.8-.3-2.1 1.3zm32 1c-1.3 1.6-1.2 1.7.4.4.9-.7 1.7-1.5 1.7-1.7 0-.8-.8-.3-2.1 1.3zm211.9-1c.6.2 1.8.2 2.5 0 .6-.3.1-.5-1.3-.5-1.4 0-1.9.2-1.2.5zm33.2.7c0 .2.8 1 1.8 1.7 1.5 1.3 1.6 1.2.3-.4s-2.1-2.1-2.1-1.3zm-43.2 1.3c.7.3 1.6.2 1.9-.1.4-.3-.2-.6-1.3-.5-1.1 0-1.4.3-.6.6zm-237.9 3c-1.3 1.6-1.2 1.7.4.4.9-.7 1.7-1.5 1.7-1.7 0-.8-.8-.3-2.1 1.3zm30.5.5-1.9 2.3 2.3-1.9c2.1-1.8 2.7-2.6 1.9-2.6-.2 0-1.2 1-2.3 2.2zm143 .4c-1.8 1.4-1.8 1.5.4.4 1.2-.6 2.2-1.3 2.2-1.5 0-.8-.5-.6-2.6 1.1zM342.5 74c3.3 3.3 6.2 6 6.4 6 .3 0-2.1-2.7-5.4-6-3.3-3.3-6.2-6-6.4-6-.3 0 2.1 2.7 5.4 6zM70.9 79.7c-1.3 1.6-1.2 1.7.4.4.9-.7 1.7-1.5 1.7-1.7 0-.8-.8-.3-2.1 1.3zm32.6 2.3c.3.5.8 1 1.1 1 .2 0 .4-.5.4-1 0-.6-.5-1-1.1-1-.5 0-.7.4-.4 1zm100.4.7c-1.3 1.6-1.2 1.7.4.4 1.6-1.3 2.1-2.1 1.3-2.1-.2 0-1 .8-1.7 1.7zM352.5 85c1 1.1 2 2 2.3 2 .3 0-.3-.9-1.3-2s-2-2-2.3-2c-.3 0 .3.9 1.3 2zm-152.6.7c-1.3 1.6-1.2 1.7.4.4 1.6-1.3 2.1-2.1 1.3-2.1-.2 0-1 .8-1.7 1.7zm-183.4.4c-.4.6-.5 1.2-.2 1.5.2.3.7-.2 1-1.1.7-1.7.1-2-.8-.4zm356.6 3.5c0 1.1.3 1.4.6.6.3-.7.2-1.6-.1-1.9-.3-.4-.6.2-.5 1.3zm-180.2 2.1-2.4 2.8 2.8-2.4c2.5-2.3 3.2-3.1 2.4-3.1-.2 0-1.4 1.2-2.8 2.7zm227.7-1.4c.3 1 .9 1.5 1.2 1.2.3-.3 0-1.1-.7-1.8-1-.9-1.1-.8-.5.6zM62 95c0 .5.5 1 1.1 1 .5 0 .7-.5.4-1-.3-.6-.8-1-1.1-1-.2 0-.4.4-.4 1zm313.2 5c0 1.4.2 1.9.5 1.2.2-.6.2-1.8 0-2.5-.3-.6-.5-.1-.5 1.3zm-156.3 1.7-2.4 2.8 2.8-2.4c2.5-2.3 3.2-3.1 2.4-3.1-.2 0-1.4 1.2-2.8 2.7zm-125.3.8c-.9 2.6-.7 3.2.5 1.2.6-1 .9-2.1.6-2.3-.2-.3-.7.2-1.1 1.1zm84.3 4.2-2.4 2.8 2.8-2.4c2.5-2.3 3.2-3.1 2.4-3.1-.2 0-1.4 1.2-2.8 2.7zm128.6-.7c-.3.6.1.7.9.4 1.8-.7 2.1-1.4.7-1.4-.6 0-1.3.4-1.6 1zm-98.1 6.2-2.9 3.3 3.3-2.9c3-2.8 3.7-3.6 2.9-3.6-.2 0-1.6 1.5-3.3 3.2zm167.7-.3c-.1 3-.3 3.2-1.8 2-1.6-1.3-1.7-1.2-.4.4 1.9 2.4 3.4.8 2.8-2.9-.4-2.8-.4-2.7-.6.5zm-50.6-.9c-.3.6.1.7.9.4 1.8-.7 2.1-1.4.7-1.4-.6 0-1.3.4-1.6 1zm10.3 2.7c.7.3 1.6.2 1.9-.1.4-.3-.2-.6-1.3-.5-1.1 0-1.4.3-.6.6zm-94.8.7c0 .2.7.7 1.6 1 .8.3 1.2.2.9-.4-.6-1-2.5-1.4-2.5-.6zm104.8.3c1.2.2 3 .2 4 0 .9-.3-.1-.5-2.3-.4-2.2 0-3 .2-1.7.4zm-112.5 1c.9.2 2.3.2 3 0 .6-.3-.1-.5-1.8-.5-1.6 0-2.2.2-1.2.5zm72.8.9c0 1.1.3 1.4.6.6.3-.7.2-1.6-.1-1.9-.3-.4-.6.2-.5 1.3zm-81.3.1c.6.2 1.8.2 2.5 0 .6-.3.1-.5-1.3-.5-1.4 0-1.9.2-1.2.5zm-6 1c.7.3 1.6.2 1.9-.1.4-.3-.2-.6-1.3-.5-1.1 0-1.4.3-.6.6zm86.3 3.9c0 1.1.3 1.4.6.6.3-.7.2-1.6-.1-1.9-.3-.4-.6.2-.5 1.3zm24.4 2.4c1 1.1 2 2 2.3 2 .3 0-.3-.9-1.3-2s-2-2-2.3-2c-.3 0 .3.9 1.3 2zm-130 0c-.3.5-.1 1 .4 1 .6 0 1.1-.5 1.1-1 0-.6-.2-1-.4-1-.3 0-.8.4-1.1 1zm29.4 1.7c-1.3 1.6-1.2 1.7.4.4.9-.7 1.7-1.5 1.7-1.7 0-.8-.8-.3-2.1 1.3zm75.3 1.3c0 1.4.2 1.9.5 1.2.2-.6.2-1.8 0-2.5-.3-.6-.5-.1-.5 1.3zm-28.8 1.2-1.9 2.3 2.3-1.9c2.1-1.8 2.7-2.6 1.9-2.6-.2 0-1.2 1-2.3 2.2zm59.1.8c1 1.1 2 2 2.3 2 .3 0-.3-.9-1.3-2s-2-2-2.3-2c-.3 0 .3.9 1.3 2zm-111.1 1.2-1.9 2.3 2.3-1.9c2.1-1.8 2.7-2.6 1.9-2.6-.2 0-1.2 1-2.3 2.2zm155.6.3c0 1.4.2 2.5.4 2.5s.6-1.1.8-2.5c.3-1.4.1-2.5-.3-2.5-.5 0-.9 1.1-.9 2.5zm-24.9.1c0 1.1.3 1.4.6.6.3-.7.2-1.6-.1-1.9-.3-.4-.6.2-.5 1.3zm-136.7 4.6-1.9 2.3 2.3-1.9c2.1-1.8 2.7-2.6 1.9-2.6-.2 0-1.2 1-2.3 2.2zm85.7-.6c0 1.1.3 1.4.6.6.3-.7.2-1.6-.1-1.9-.3-.4-.6.2-.5 1.3zm52 1c0 1.1.3 1.4.6.6.3-.7.2-1.6-.1-1.9-.3-.4-.6.2-.5 1.3zm-90.2 2.1c-1.3 1.6-1.2 1.7.4.4.9-.7 1.7-1.5 1.7-1.7 0-.8-.8-.3-2.1 1.3zM27 141.5c-2.4 2.5-4.2 4.5-3.9 4.5.3 0 2.5-2 4.9-4.5 2.4-2.5 4.2-4.5 3.9-4.5-.3 0-2.5 2-4.9 4.5zm275.2.5c0 1.4.2 1.9.5 1.2.2-.6.2-1.8 0-2.5-.3-.6-.5-.1-.5 1.3zm-42.8 2.2-1.9 2.3 2.3-1.9c2.1-1.8 2.7-2.6 1.9-2.6-.2 0-1.2 1-2.3 2.2zm128.6.7c0 .6.4 1.3 1 1.6.6.3.7-.1.4-.9-.7-1.8-1.4-2.1-1.4-.7zm-373.9 4.7c0 1.1.3 1.4.6.6.3-.7.2-1.6-.1-1.9-.3-.4-.6.2-.5 1.3zm64 0c0 1.1.3 1.4.6.6.3-.7.2-1.6-.1-1.9-.3-.4-.6.2-.5 1.3zm80.3 1c-1.8 1.4-1.8 1.5.4.4 1.2-.6 2.2-1.3 2.2-1.5 0-.8-.5-.6-2.6 1.1zm13.5.1c-1.3 1.6-1.2 1.7.4.4.9-.7 1.7-1.5 1.7-1.7 0-.8-.8-.3-2.1 1.3zm28 2-2.4 2.8 2.8-2.4c2.5-2.3 3.2-3.1 2.4-3.1-.2 0-1.4 1.2-2.8 2.7zm15-1c-1.3 1.6-1.2 1.7.4.4.9-.7 1.7-1.5 1.7-1.7 0-.8-.8-.3-2.1 1.3zm86.4 3.3c0 3 .2 4.3.4 2.7.2-1.5.2-3.9 0-5.5-.2-1.5-.4-.2-.4 2.8zm-288.2-.4c0 1.1.3 1.4.6.6.3-.7.2-1.6-.1-1.9-.3-.4-.6.2-.5 1.3zm64 0c0 1.1.3 1.4.6.6.3-.7.2-1.6-.1-1.9-.3-.4-.6.2-.5 1.3zm74.8.1c-1.3 1.6-1.2 1.7.4.4.9-.7 1.7-1.5 1.7-1.7 0-.8-.8-.3-2.1 1.3zm66.5 7.8c0 5.5.1 7.6.3 4.7.2-2.9.2-7.4 0-10-.2-2.6-.3-.2-.3 5.3zm-12.9-2.3-5 5.3 5.3-5c4.8-4.6 5.7-5.5 4.9-5.5-.1 0-2.5 2.4-5.2 5.2zm-10.6-1.5c-1.3 1.6-1.2 1.7.4.4.9-.7 1.7-1.5 1.7-1.7 0-.8-.8-.3-2.1 1.3zm54.1.3c-.6 1.1-.8 2-.6 2 .3 0 1-.9 1.6-2 .6-1.1.8-2 .6-2-.3 0-1 .9-1.6 2zm-236.8 2c0 1.4.2 1.9.5 1.2.2-.6.2-1.8 0-2.5-.3-.6-.5-.1-.5 1.3zm179.7 1.7c-1.3 1.6-1.2 1.7.4.4 1.6-1.3 2.1-2.1 1.3-2.1-.2 0-1 .8-1.7 1.7zm54.7.8c-.9 2.6-.7 3.2.5 1.2.6-1 .9-2.1.6-2.3-.2-.3-.7.2-1.1 1.1zm31.7 3.5c0 2.5.2 3.5.4 2.2.2-1.2.2-3.2 0-4.5-.2-1.2-.4-.2-.4 2.3zm-203.2-.4c0 1.1.3 1.4.6.6.3-.7.2-1.6-.1-1.9-.3-.4-.6.2-.5 1.3zM11 167.7c0 1.3.5 2.3 1 2.3 1.3 0 1.3-1.1 0-3-.8-1.2-1-1.1-1 .7zm26.1 1.9c0 1.1.3 1.4.6.6.3-.7.2-1.6-.1-1.9-.3-.4-.6.2-.5 1.3zm230.8 3.1c-1.3 1.6-1.2 1.7.4.4 1.6-1.3 2.1-2.1 1.3-2.1-.2 0-1 .8-1.7 1.7zm33.4 2.8c0 2.7.2 3.8.4 2.2.2-1.5.2-3.7 0-5-.2-1.2-.4 0-.4 2.8zm-265.2-.9c0 1.1.3 1.4.6.6.3-.7.2-1.6-.1-1.9-.3-.4-.6.2-.5 1.3zm38.1.4c0 1.4.2 1.9.5 1.2.2-.6.2-1.8 0-2.5-.3-.6-.5-.1-.5 1.3zm144.9 2.6c0 1.1.3 1.4.6.6.3-.7.2-1.6-.1-1.9-.3-.4-.6.2-.5 1.3zm-184 3c0 1.1.3 1.4.6.6.3-.7.2-1.6-.1-1.9-.3-.4-.6.2-.5 1.3zm155.4-.5c-.4.6-.5 1.2-.2 1.5.2.3.7-.2 1-1.1.7-1.7.1-2-.8-.4zm88.7 1.9c0 1.9.2 2.7.5 1.7.2-.9.2-2.5 0-3.5-.3-.9-.5-.1-.5 1.8zm92.8 1.5c1.3 1.4 2.6 2.5 2.8 2.5.3 0-.5-1.1-1.8-2.5s-2.6-2.5-2.8-2.5c-.3 0 .5 1.1 1.8 2.5zm24.1-.9c0 1.1.3 1.4.6.6.3-.7.2-1.6-.1-1.9-.3-.4-.6.2-.5 1.3zm-135.6 1.5c-.4.6-.5 1.2-.2 1.5.2.3.7-.2 1-1.1.7-1.7.1-2-.8-.4zM73.4 199c0 8.5.2 12 .3 7.7.2-4.2.2-11.2 0-15.5-.1-4.2-.3-.7-.3 7.8zm228.8-12c0 1.4.2 1.9.5 1.2.2-.6.2-1.8 0-2.5-.3-.6-.5-.1-.5 1.3zm-63.1.6c0 1.1.3 1.4.6.6.3-.7.2-1.6-.1-1.9-.3-.4-.6.2-.5 1.3zm-204.9 1.9c0 1.6.2 2.2.5 1.2.2-.9.2-2.3 0-3-.3-.6-.5.1-.5 1.8zm361.8-1.7c0 .7-1.2 1.3-2.7 1.3-2.6.2-2.6.2-.4.6 2.4.5 5-1.1 3.8-2.4-.4-.3-.7-.1-.7.5zm-16 2.7c1.3 1.4 2.6 2.5 2.8 2.5.3 0-.5-1.1-1.8-2.5s-2.6-2.5-2.8-2.5c-.3 0 .5 1.1 1.8 2.5zm-99.8 1.5c0 1.4.2 1.9.5 1.2.2-.6.2-1.8 0-2.5-.3-.6-.5-.1-.5 1.3zm-42 2.5c0 1.6.2 2.2.5 1.2.2-.9.2-2.3 0-3-.3-.6-.5.1-.5 1.8zm64.9.1c0 1.1.3 1.4.6.6.3-.7.2-1.6-.1-1.9-.3-.4-.6.2-.5 1.3zm-21.9 4.4c0 1.4.2 1.9.5 1.2.2-.6.2-1.8 0-2.5-.3-.6-.5-.1-.5 1.3zm22.9.6c0 1.1.3 1.4.6.6.3-.7.2-1.6-.1-1.9-.3-.4-.6.2-.5 1.3zM33.4 210c0 5.8.1 8.1.3 5.2.2-2.8.2-7.6 0-10.5-.2-2.8-.3-.5-.3 5.3zm149.8-5c0 1.4.2 1.9.5 1.2.2-.6.2-1.8 0-2.5-.3-.6-.5-.1-.5 1.3zm140.6.7c.7.3 1.6.2 1.9-.1.4-.3-.2-.6-1.3-.5-1.1 0-1.4.3-.6.6zm4 0c.6.2 1.8.2 2.5 0 .6-.3.1-.5-1.3-.5-1.4 0-1.9.2-1.2.5zm-129.7 3.9c0 1.1.3 1.4.6.6.3-.7.2-1.6-.1-1.9-.3-.4-.6.2-.5 1.3zm117.8.1c-1.3 1.6-1.2 1.7.4.4 1.6-1.3 2.1-2.1 1.3-2.1-.2 0-1 .8-1.7 1.7zm-63.7 3.8c0 1.6.2 2.2.5 1.2.2-.9.2-2.3 0-3-.3-.6-.5.1-.5 1.8zm136.9-.9c0 1.1.3 1.4.6.6.3-.7.2-1.6-.1-1.9-.3-.4-.6.2-.5 1.3zm-74.2.7c.5.5 3 .7 5.7.5l4.9-.3-5.7-.5c-3.1-.3-5.3-.1-4.9.3zm-131.7 3.2c0 1.6.2 2.2.5 1.2.2-.9.2-2.3 0-3-.3-.6-.5.1-.5 1.8zm145.6-1.8c.7.3 1.6.2 1.9-.1.4-.3-.2-.6-1.3-.5-1.1 0-1.4.3-.6.6zm-92.2 5.5c.3.4.9.8 1.5.8.5 0 .9-.4.9-.8 0-.5-.7-.9-1.5-.9s-1.2.4-.9.9zm-162.4 2.3c0 1.6.2 2.2.5 1.2.2-.9.2-2.3 0-3-.3-.6-.5.1-.5 1.8zM219 222c.6 1.1 1.3 2 1.6 2 .2 0 0-.9-.6-2s-1.3-2-1.6-2c-.2 0 0 .9.6 2zm-74.9.6c0 1.1.3 1.4.6.6.3-.7.2-1.6-.1-1.9-.3-.4-.6.2-.5 1.3zm239.4 1.3c-.6.6-3 1.1-5.5 1.4l-4.5.4 4.6.1c3.1.1 5.1-.3 5.9-1.3 1.4-1.6 1-2.1-.5-.6zm11.9 3.3-2.9 3.3 3.3-2.9c1.7-1.7 3.2-3.1 3.2-3.3 0-.8-.8-.1-3.6 2.9zm-197.3.4c0 1.1.3 1.4.6.6.3-.7.2-1.6-.1-1.9-.3-.4-.6.2-.5 1.3zm-163.9 2.9c0 1.6.2 2.2.5 1.2.2-.9.2-2.3 0-3-.3-.6-.5.1-.5 1.8zm-34.1.1c0 1.1.3 1.4.6.6.3-.7.2-1.6-.1-1.9-.3-.4-.6.2-.5 1.3zm75 0c0 1.1.3 1.4.6.6.3-.7.2-1.6-.1-1.9-.3-.4-.6.2-.5 1.3zm68.2 1.9c0 2.2.2 3 .4 1.7.2-1.2.2-3 0-4-.3-.9-.5.1-.4 2.3zm108.9-.5c0 1.9.2 2.7.5 1.7.2-.9.2-2.5 0-3.5-.3-.9-.5-.1-.5 1.8zm-217 7c0 1.4.2 1.9.5 1.2.2-.6.2-1.8 0-2.5-.3-.6-.5-.1-.5 1.3zm339.7.7c-1.3 1.6-1.2 1.7.4.4 1.6-1.3 2.1-2.1 1.3-2.1-.2 0-1 .8-1.7 1.7zM191 241c.6 1.1 1.3 2 1.6 2 .2 0 0-.9-.6-2s-1.3-2-1.6-2c-.2 0 0 .9.6 2zm62.2 0c0 1.4.2 1.9.5 1.2.2-.6.2-1.8 0-2.5-.3-.6-.5-.1-.5 1.3zm-93.1 3.6c0 1.1.3 1.4.6.6.3-.7.2-1.6-.1-1.9-.3-.4-.6.2-.5 1.3zm-124 1c0 1.1.3 1.4.6.6.3-.7.2-1.6-.1-1.9-.3-.4-.6.2-.5 1.3zm312.3-.2c-.3.8-.4 3.1-.2 5.2.3 3.6.4 3.5.8-1.4.5-5.3.4-6.3-.6-3.8zm-94.3 1.2c0 1.1.3 1.4.6.6.3-.7.2-1.6-.1-1.9-.3-.4-.6.2-.5 1.3zm-94.9 3.4c0 1.4.2 1.9.5 1.2.2-.6.2-1.8 0-2.5-.3-.6-.5-.1-.5 1.3zm36.8-1.6c0 .2.8 1 1.8 1.7 1.5 1.3 1.6 1.2.3-.4s-2.1-2.1-2.1-1.3zm-52.7 5.1c0 2.2.2 3 .4 1.7.2-1.2.2-3 0-4-.3-.9-.5.1-.4 2.3zm221.5-1c-.3 1.4-.1 2.5.3 2.5.5 0 .9-1.1.9-2.5s-.2-2.5-.4-2.5-.6 1.1-.8 2.5zm-285.7.1c0 1.1.3 1.4.6.6.3-.7.2-1.6-.1-1.9-.3-.4-.6.2-.5 1.3zm-41 3c0 1.1.3 1.4.6.6.3-.7.2-1.6-.1-1.9-.3-.4-.6.2-.5 1.3zm290.9-1.2c0 .2.8 1 1.8 1.7 1.5 1.3 1.6 1.2.3-.4s-2.1-2.1-2.1-1.3zm-248.9 2.2c0 1.1.3 1.4.6.6.3-.7.2-1.6-.1-1.9-.3-.4-.6.2-.5 1.3zm78.1.4c0 1.4.2 1.9.5 1.2.2-.6.2-1.8 0-2.5-.3-.6-.5-.1-.5 1.3zm82.8-.6c0 .2.8 1 1.8 1.7 1.5 1.3 1.6 1.2.3-.4s-2.1-2.1-2.1-1.3zm-33.6 3.3c1.1 1.3 2.3 2.3 2.8 2.3 1.1 0 1-2.7-.2-3.5-.6-.4-.7.1-.3 1.2.6 1.6.4 1.6-1.8-.2l-2.4-2 1.9 2.2zM357 262c0 1.6.2 3 .4 3s.6-1.4.8-3c.3-1.7.1-3-.4-3-.4 0-.8 1.3-.8 3zm-113-1.6c0 .2.8 1 1.8 1.7 1.5 1.3 1.6 1.2.3-.4s-2.1-2.1-2.1-1.3zm95 5.1c3 3 5.7 5.5 5.9 5.5.3 0-1.9-2.5-4.9-5.5-3-3-5.7-5.5-5.9-5.5-.3 0 1.9 2.5 4.9 5.5zm-194.9-2.9c0 1.1.3 1.4.6.6.3-.7.2-1.6-.1-1.9-.3-.4-.6.2-.5 1.3zm161.9.8c0 .2.8 1 1.8 1.7 1.5 1.3 1.6 1.2.3-.4s-2.1-2.1-2.1-1.3zM157.2 266c0 1.4.2 1.9.5 1.2.2-.6.2-1.8 0-2.5-.3-.6-.5-.1-.5 1.3zm92.3 1c1 1.1 2 2 2.3 2 .3 0-.3-.9-1.3-2s-2-2-2.3-2c-.3 0 .3.9 1.3 2zm108.6 1.6c0 1.1.3 1.4.6.6.3-.7.2-1.6-.1-1.9-.3-.4-.6.2-.5 1.3zm-259.7 3.8c-.3.8-.4 2.7-.1 4.3.3 2.3.4 2.1.6-1 .1-2.6.5-3.6 1.3-3.1.7.4.8.3.4-.4-.9-1.6-1.5-1.5-2.2.2zm154.6-1c0 .2.8 1 1.8 1.7 1.5 1.3 1.6 1.2.3-.4s-2.1-2.1-2.1-1.3zm-96.8 2.6c0 1.4.2 1.9.5 1.2.2-.6.2-1.8 0-2.5-.3-.6-.5-.1-.5 1.3zm158.8-1.6c0 .2.8 1 1.8 1.7 1.5 1.3 1.6 1.2.3-.4s-2.1-2.1-2.1-1.3zm33 1c0 .2.8 1 1.8 1.7 1.5 1.3 1.6 1.2.3-.4s-2.1-2.1-2.1-1.3zm-332 3.1c0 .5.5 1.7 1 2.5s1 1 1 .5c0-.6-.5-1.7-1-2.5s-1-1.1-1-.5zm242 .8c0 .2 1.5 1.6 3.3 3.3l3.2 2.9-2.9-3.3c-2.8-3-3.6-3.7-3.6-2.9zM155.2 283c0 1.4.2 1.9.5 1.2.2-.6.2-1.8 0-2.5-.3-.6-.5-.1-.5 1.3zm258.3-.9c-.4.6-.5 1.2-.2 1.5.2.3.7-.2 1-1.1.7-1.7.1-2-.8-.4zM20 285c.6 1.1 1.3 2 1.6 2 .2 0 0-.9-.6-2s-1.3-2-1.6-2c-.2 0 0 .9.6 2zm89 .4c0 .2.8 1 1.8 1.7 1.5 1.3 1.6 1.2.3-.4s-2.1-2.1-2.1-1.3zm3 4c0 .2.8 1 1.8 1.7 1.5 1.3 1.6 1.2.3-.4s-2.1-2.1-2.1-1.3zm245.8.3c.7.3 1.6.2 1.9-.1.4-.3-.2-.6-1.3-.5-1.1 0-1.4.3-.6.6zm-205.1 1.4c.7.7 1.5 1 1.8.7.3-.3-.2-.9-1.2-1.2-1.4-.6-1.5-.5-.6.5zm210.1-.4c.7.3 1.6.2 1.9-.1.4-.3-.2-.6-1.3-.5-1.1 0-1.4.3-.6.6zm7.7.3c-3 .8-3 .8.8.9 2.3.1 3.6-.3 3.2-.9-.3-.6-.7-.9-.8-.9-.1.1-1.5.5-3.2.9zM116 294.4c0 .2.8 1 1.8 1.7 1.5 1.3 1.6 1.2.3-.4s-2.1-2.1-2.1-1.3zm-19 3.8c0 1.9-.2 2-1 .8-.5-.8-1-1-1-.4 0 .5.6 1.8 1.3 2.8 1.2 1.7 1.4 1.5 1.5-1.8.1-2-.1-3.6-.3-3.6-.3 0-.5 1-.5 2.2zm27 5.3c1.9 1.9 3.6 3.5 3.9 3.5.3 0-1-1.6-2.9-3.5s-3.6-3.5-3.9-3.5c-.3 0 1 1.6 2.9 3.5zm251.4 14.7-1.9 2.3 2.3-1.9c1.2-1.1 2.2-2.1 2.2-2.3 0-.8-.8-.2-2.6 1.9zm-309.4.2c0 .2.8 1 1.8 1.7 1.5 1.3 1.6 1.2.3-.4s-2.1-2.1-2.1-1.3zm74.5 1.6c1 1.1 2 2 2.3 2 .3 0-.3-.9-1.3-2s-2-2-2.3-2c-.3 0 .3.9 1.3 2zm-97.5.4c0 .2.8 1 1.8 1.7 1.5 1.3 1.6 1.2.3-.4s-2.1-2.1-2.1-1.3zm344.9 1.3c-1.3 1.6-1.2 1.7.4.4 1.6-1.3 2.1-2.1 1.3-2.1-.2 0-1 .8-1.7 1.7zm-346.9.7c0 .2.8 1 1.8 1.7 1.5 1.3 1.6 1.2.3-.4s-2.1-2.1-2.1-1.3zm28 0c0 .2.8 1 1.8 1.7 1.5 1.3 1.6 1.2.3-.4s-2.1-2.1-2.1-1.3zm320.9 1.3c-1.3 1.6-1.2 1.7.4.4 1.6-1.3 2.1-2.1 1.3-2.1-.2 0-1 .8-1.7 1.7zM147 325.4c0 .2.8 1 1.8 1.7 1.5 1.3 1.6 1.2.3-.4s-2.1-2.1-2.1-1.3zM49.5 328c1 1.1 2 2 2.3 2 .3 0-.3-.9-1.3-2s-2-2-2.3-2c-.3 0 .3.9 1.3 2zm332.4.7-2.4 2.8 2.8-2.4c1.5-1.4 2.7-2.6 2.7-2.8 0-.8-.8-.1-3.1 2.4zM73 327.3c0 .2 1.5 1.6 3.3 3.3l3.2 2.9-2.9-3.3c-2.8-3-3.6-3.7-3.6-2.9zM47.5 330c1 1.1 2 2 2.3 2 .3 0-.3-.9-1.3-2s-2-2-2.3-2c-.3 0 .3.9 1.3 2zm336.9.2-1.9 2.3 2.3-1.9c1.2-1.1 2.2-2.1 2.2-2.3 0-.8-.8-.2-2.6 1.9zm-23 1-1.9 2.3 2.3-1.9c1.2-1.1 2.2-2.1 2.2-2.3 0-.8-.8-.2-2.6 1.9zm-6 5-1.9 2.3 2.3-1.9c1.2-1.1 2.2-2.1 2.2-2.3 0-.8-.8-.2-2.6 1.9zM85 340.5c3 3 5.7 5.5 5.9 5.5.3 0-1.9-2.5-4.9-5.5-3-3-5.7-5.5-5.9-5.5-.3 0 1.9 2.5 4.9 5.5zm182.6-4.6c-.3.5.2 1.5 1.2 2.2 1.5 1.2 1.6 1.2.5-.2-.7-.9-1-1.9-.6-2.2.3-.4.4-.7 0-.7-.3 0-.8.4-1.1.9zm17.2 3.8c.6.2 1.8.2 2.5 0 .6-.3.1-.5-1.3-.5-1.4 0-1.9.2-1.2.5zm18.5 0c.9.2 2.5.2 3.5 0 .9-.3.1-.5-1.8-.5-1.9 0-2.7.2-1.7.5zm46.6 1c-1.3 1.6-1.2 1.7.4.4 1.6-1.3 2.1-2.1 1.3-2.1-.2 0-1 .8-1.7 1.7zm-4 3c-1.3 1.6-1.2 1.7.4.4 1.6-1.3 2.1-2.1 1.3-2.1-.2 0-1 .8-1.7 1.7zM70 348.5c1.3 1.4 2.6 2.5 2.8 2.5.3 0-.5-1.1-1.8-2.5s-2.6-2.5-2.8-2.5c-.3 0 .5 1.1 1.8 2.5zm222.8-.8c.7.3 1.6.2 1.9-.1.4-.3-.2-.6-1.3-.5-1.1 0-1.4.3-.6.6zm68.6 1.5-1.9 2.3 2.3-1.9c1.2-1.1 2.2-2.1 2.2-2.3 0-.8-.8-.2-2.6 1.9zM68 350.5c1.3 1.4 2.6 2.5 2.8 2.5.3 0-.5-1.1-1.8-2.5s-2.6-2.5-2.8-2.5c-.3 0 .5 1.1 1.8 2.5zm27.5-.5c1 1.1 2 2 2.3 2 .3 0-.3-.9-1.3-2s-2-2-2.3-2c-.3 0 .3.9 1.3 2zm27.1-.7c.3.8 1.1 1.4 1.9 1.4 1.1 0 1.2-.4.4-1.4-1.5-1.7-3-1.7-2.3 0zm174.4-.9c0 .2.7.6 1.5 1 .8.3 1.5.1 1.5-.4 0-.6-.7-1-1.5-1s-1.5.2-1.5.4zm66.4 2.8-1.9 2.3 2.3-1.9c1.2-1.1 2.2-2.1 2.2-2.3 0-.8-.8-.2-2.6 1.9zm-68.6-.5c.7.3 1.6.2 1.9-.1.4-.3-.2-.6-1.3-.5-1.1 0-1.4.3-.6.6zM76.5 354c1 1.1 2 2 2.3 2 .3 0-.3-.9-1.3-2s-2-2-2.3-2c-.3 0 .3.9 1.3 2zm278.9.2-1.9 2.3 2.3-1.9c1.2-1.1 2.2-2.1 2.2-2.3 0-.8-.8-.2-2.6 1.9zm-282.4.2c0 .2.8 1 1.8 1.7 1.5 1.3 1.6 1.2.3-.4s-2.1-2.1-2.1-1.3zm131.8 1.3c.7.3 1.6.2 1.9-.1.4-.3-.2-.6-1.3-.5-1.1 0-1.4.3-.6.6zm152.1 1c-1.3 1.6-1.2 1.7.4.4.9-.7 1.7-1.5 1.7-1.7 0-.8-.8-.3-2.1 1.3zm-148.1 0c.7.3 1.6.2 1.9-.1.4-.3-.2-.6-1.3-.5-1.1 0-1.4.3-.6.6zm5 1c.6.2 1.8.2 2.5 0 .6-.3.1-.5-1.3-.5-1.4 0-1.9.2-1.2.5zm48 0c.6.2 1.8.2 2.5 0 .6-.3.1-.5-1.3-.5-1.4 0-1.9.2-1.2.5zm-183.8.7c0 .2.8 1 1.8 1.7 1.5 1.3 1.6 1.2.3-.4s-2.1-2.1-2.1-1.3zm143.3.3c.9.2 2.3.2 3 0 .6-.3-.1-.5-1.8-.5-1.6 0-2.2.2-1.2.5zm32 0c.9.2 2.3.2 3 0 .6-.3-.1-.5-1.8-.5-1.6 0-2.2.2-1.2.5zm-19 1c1.5.2 3.7.2 5 0 1.2-.2 0-.4-2.8-.4-2.7 0-3.8.2-2.2.4zm110.6 6c-1.3 1.6-1.2 1.7.4.4 1.6-1.3 2.1-2.1 1.3-2.1-.2 0-1 .8-1.7 1.7zM307 367c-.9.6-1 1-.3 1 .6 0 1.5-.5 1.8-1 .8-1.2.4-1.2-1.5 0zm-173 .4c0 .2.8 1 1.8 1.7 1.5 1.3 1.6 1.2.3-.4s-2.1-2.1-2.1-1.3z"/><path fill="#FFF" d="M141 5c-.8.5-1 1-.5 1 .6 0 1.7-.5 2.5-1s1.1-1 .5-1c-.5 0-1.7.5-2.5 1zm111.9 1.3c.5.5 2.1.7 3.7.5 2.7-.3 2.6-.4-.8-.9-2.2-.3-3.4-.1-2.9.4zm24.7 4.1c.3.8 1.3 1.7 2.2 2.1 1.3.5 1.3.2-.3-1.5-2.1-2.4-2.6-2.5-1.9-.6zm-2.6 4.1c.7.9 1.5 1.3 1.7 1.1.7-.7-.7-2.6-1.9-2.6-.6 0-.6.6.2 1.5zm-79 7.6c0 .5.5.7 1 .4.6-.3 1-.8 1-1.1 0-.2-.4-.4-1-.4-.5 0-1 .5-1 1.1zM87.7 26.4c-.4 1-.5 2.1-.2 2.4.9.9 1.7-.6 1.3-2.5-.3-1.7-.4-1.7-1.1.1zm155.3.1c-.8.9-.8 1.5-.2 1.5 1.2 0 2.6-1.9 1.9-2.6-.2-.2-1 .2-1.7 1.1zm55 0c0 .8.4 1.5 1 1.5.5 0 .7-.7.4-1.5-.4-.8-.8-1.5-1-1.5-.2 0-.4.7-.4 1.5zm5.5-.5c.3.5.8 1 1.1 1 .2 0 .4-.5.4-1 0-.6-.5-1-1.1-1-.5 0-.7.4-.4 1zm3.6 1.6c0 1.1.3 1.4.6.6.3-.7.2-1.6-.1-1.9-.3-.4-.6.2-.5 1.3zm-36.3.1c.7.3 1.6.2 1.9-.1.4-.3-.2-.6-1.3-.5-1.1 0-1.4.3-.6.6zm-24.2 1.9c-2.4 2.4-1.9 3 .7.8 1.2-1 2.4-2 2.6-2.1.2-.2-.1-.3-.7-.3s-1.8.7-2.6 1.6zM83.2 30.7c-.6.2-1 .9-.7 1.3.7 1.1 3.5.2 3.5-1.1 0-1-.8-1-2.8-.2zm218.8.2c0 .5.7 1.1 1.5 1.5.8.3 1.5.1 1.5-.3 0-.5-.7-1.1-1.5-1.5-.8-.3-1.5-.1-1.5.3zm-152.9 5.4c.2.1 1.3.9 2.4 1.7 1.9 1.4 1.9 1.4.6-.3-.7-.9-1.8-1.7-2.4-1.7-.6 0-.8.1-.6.3zM77 38.1c0 .5.5.7 1 .4.6-.3 1-.8 1-1.1 0-.2-.4-.4-1-.4-.5 0-1 .5-1 1.1zm206 11c0 .5.5.7 1 .4.6-.3 1-.8 1-1.1 0-.2-.4-.4-1-.4-.5 0-1 .5-1 1.1zm14 .9c-1.7 1.1 1 1.9 3.4 1 1.9-.6 1.9-.7-.1-1.2-1.1-.3-2.6-.2-3.3.2zm104.7-.3c-.7 1.1 1 4 1.8 3.1.4-.4.3-1.4-.3-2.4-.5-.9-1.2-1.2-1.5-.7zM405 55c0 .5 1 1 2.3 1 1.8 0 1.9-.2.7-1-1.9-1.3-3-1.3-3 0zM36.3 59.7c-2 2-2 2.3-.5 2.3 1 0 2.3.5 3 1.2 1.5 1.5 2.8.3 1.5-1.4-.6-.7-1.2-2-1.4-2.8-.3-1.2-.9-1-2.6.7zm209.5-2c-1 .2-1.8.9-1.8 1.4 0 .6.8.5 2-.1 1.1-.6 2-1.3 2-1.5 0-.3-.1-.4-.2-.4-.2.1-1.1.3-2 .6zm70.2 1.1c0 1-.5 2.3-1.2 3-1.5 1.5-.3 2.8 1.4 1.5.7-.6 2-1.2 2.8-1.4 1.2-.3 1-.9-.7-2.6-2-2-2.3-2-2.3-.5zm89.8-.1c.7.3 1.6.2 1.9-.1.4-.3-.2-.6-1.3-.5-1.1 0-1.4.3-.6.6zM30.1 70.6c0 1.1.3 1.4.6.6.3-.7.2-1.6-.1-1.9-.3-.4-.6.2-.5 1.3zM271.3 72c-2.8 1.1-3 3-.4 3 1 0 2.1-.9 2.4-2 .3-1.1.4-2 .4-1.9-.1 0-1.2.4-2.4.9zm130.9 4.7c-.2 3.5-.1 3.6 1.2 1.8 1.2-1.7 1.8-1.8 3.5-.8 1.5 1 2 .9 2.5-.2.4-1.1-.2-1.5-1.8-1.5-1.3 0-2.6-.7-3-1.5-1-2.6-2.1-1.6-2.4 2.2zm-195.4-1c.7.3 1.6.2 1.9-.1.4-.3-.2-.6-1.3-.5-1.1 0-1.4.3-.6.6zM14 77.5c-.8.9-.8 1.5-.2 1.5 1.2 0 2.6-1.9 1.9-2.6-.2-.2-1 .2-1.7 1.1zm189.1 1.1c0 1.1.3 1.4.6.6.3-.7.2-1.6-.1-1.9-.3-.4-.6.2-.5 1.3zm35.9 12c0 .8.5 1.2 1 .9.6-.4.8-1.1.5-1.6-.9-1.4-1.5-1.1-1.5.7zm136 2.3c0 .6.4 1.3 1 1.6.6.3.7-.1.4-.9-.7-1.8-1.4-2.1-1.4-.7zm-197 9c0 .6.4 1.3 1 1.6.6.3.7-.1.4-.9-.7-1.8-1.4-2.1-1.4-.7zm157 4.9c.6 1.3 1.4 2.1 1.8 1.8.3-.4-.2-1.4-1.2-2.4-1.8-1.6-1.8-1.6-.6.6zm86.2 1.2c0 1.4.2 1.9.5 1.2.2-.6.2-1.8 0-2.5-.3-.6-.5-.1-.5 1.3zm-89.6 2.4c2.1 1.5 3 1.4 1.9-.3-.3-.6-1.4-1.1-2.3-1.1-1.3 0-1.3.2.4 1.4zm35.9-.4c-1.6.7-1.7.9-.3.9.9.1 2-.4 2.3-.9.7-1.1.7-1.1-2 0zM21 114.2c0 .9.5 2 1 2.3 1.3.8 1.3-.5 0-2.5-.8-1.3-1-1.3-1 .2zm146.6.1c.3 1 .9 1.5 1.2 1.2.3-.3 0-1.1-.7-1.8-1-.9-1.1-.8-.5.6zm59.2-.6c.7.3 1.6.2 1.9-.1.4-.3-.2-.6-1.3-.5-1.1 0-1.4.3-.6.6zm-4 2c.7.3 1.6.2 1.9-.1.4-.3-.2-.6-1.3-.5-1.1 0-1.4.3-.6.6zm-217.2 2c-.6 1.4-.5 1.5.5.6.7-.7 1-1.5.7-1.8-.3-.3-.9.2-1.2 1.2zm207.9-.7c-.3.6.1.7.9.4 1.8-.7 2.1-1.4.7-1.4-.6 0-1.3.4-1.6 1zm-47.7.7c.7.3 1.6.2 1.9-.1.4-.3-.2-.6-1.3-.5-1.1 0-1.4.3-.6.6zm69.2 6.8c0 .8.4 1.5 1 1.5.5 0 .7-.7.4-1.5-.4-.8-.8-1.5-1-1.5-.2 0-.4.7-.4 1.5zm88.8 1.2c.7.3 1.6.2 1.9-.1.4-.3-.2-.6-1.3-.5-1.1 0-1.4.3-.6.6zm31.2 2.8c0 .8.4 1.5.9 1.5s1.1-.7 1.5-1.5c.3-.9 0-1.5-.9-1.5-.8 0-1.5.7-1.5 1.5zm4.8 9.2c-.4 1.6-1.4 2.3-3.2 2.3-1.4 0-2.6.4-2.6.8 0 .8 6.1 3.4 6.8 2.8.2-.2.2-2.1 0-4.2-.2-3.1-.4-3.5-1-1.7zm-349.7 2.9c0 1.1.3 1.4.6.6.3-.7.2-1.6-.1-1.9-.3-.4-.6.2-.5 1.3zm204.4 4.4c-.3.5-.1 1 .4 1 .6 0 1.1-.5 1.1-1 0-.6-.2-1-.4-1-.3 0-.8.4-1.1 1zm-4.9 1.6c-.3.8.1 1.4.9 1.4 2 0 2.8-1.7 1.1-2.3-.8-.3-1.7.1-2 .9zm169.4 1.8c0 .9.5 1.6 1 1.6.6 0 1-.4 1-.9 0-.6-.4-1.3-1-1.6-.5-.3-1 .1-1 .9zm-214.1 1.3c-1.3 1.6-1.2 1.7.4.4.9-.7 1.7-1.5 1.7-1.7 0-.8-.8-.3-2.1 1.3zM202 154c-.9.6-1 1-.3 1 .6 0 1.5-.5 1.8-1 .8-1.2.4-1.2-1.5 0zm17.8-.3c.7.3 1.6.2 1.9-.1.4-.3-.2-.6-1.3-.5-1.1 0-1.4.3-.6.6zm23.2.8c-.8.9-.8 1.5-.2 1.5 1.2 0 2.6-1.9 1.9-2.6-.2-.2-1 .2-1.7 1.1zm-84.1 1.2c-1.3 1.7-1.3 1.7.6.3 1.1-.8 2.2-1.6 2.4-1.7.2-.2 0-.3-.6-.3s-1.7.8-2.4 1.7zm88.1 1.4c-3.6 4.4-3.8 6-.2 1.9 1.7-1.9 3.1-3.8 3.2-4.3 0-1.1-.3-.8-3 2.4zm57.1 1.5c0 1.1.3 1.4.6.6.3-.7.2-1.6-.1-1.9-.3-.4-.6.2-.5 1.3zm-150.3.1c.6.2 1.8.2 2.5 0 .6-.3.1-.5-1.3-.5-1.4 0-1.9.2-1.2.5zM34 166c0 .5.7.7 1.5.4.8-.4 1.5-.8 1.5-1 0-.2-.7-.4-1.5-.4s-1.5.4-1.5 1zm188.1 7.6c0 1.1.3 1.4.6.6.3-.7.2-1.6-.1-1.9-.3-.4-.6.2-.5 1.3zm-207.6.4c.3.5.8 1 1.1 1 .2 0 .4-.5.4-1 0-.6-.5-1-1.1-1-.5 0-.7.4-.4 1zM.3 182c0 3 .2 4.3.4 2.7.2-1.5.2-3.9 0-5.5-.2-1.5-.4-.2-.4 2.8zm234.8-3.4c0 1.1.3 1.4.6.6.3-.7.2-1.6-.1-1.9-.3-.4-.6.2-.5 1.3zm69 0c0 1.1.3 1.4.6.6.3-.7.2-1.6-.1-1.9-.3-.4-.6.2-.5 1.3zm-65 1c0 1.1.3 1.4.6.6.3-.7.2-1.6-.1-1.9-.3-.4-.6.2-.5 1.3zm35.1 2.4c0 1.4.2 1.9.5 1.2.2-.6.2-1.8 0-2.5-.3-.6-.5-.1-.5 1.3zm2.8 1c0 .5.5 1 1.1 1 .5 0 .7-.5.4-1-.3-.6-.8-1-1.1-1-.2 0-.4.4-.4 1zm-43 5.9c0 2.5.6 2.7 1.3.6.4-.8.2-1.7-.3-2-.6-.4-1 .3-1 1.4zm138 1.1c-.8.5-1 1-.5 1 .6 0 1.7-.5 2.5-1s1.1-1 .5-1c-.5 0-1.7.5-2.5 1zm-223.8 2c0 1.4.2 1.9.5 1.2.2-.6.2-1.8 0-2.5-.3-.6-.5-.1-.5 1.3zm82.3 2c-.3.5-1.8 1-3.3 1.1-2.5 0-2.6.1-.5.9 1.2.5 2.6 1.7 3.2 2.7 1 1.7 1 1.6 1.1-.4 0-1.2.5-2.5 1-2.8.6-.3 1-1 1-1.6 0-1.2-1.7-1.2-2.5.1zm45.3 1c-.7 2.4-.3 3.8.8 2.8.3-.4.4-1.7.2-3l-.3-2.3-.7 2.5zm-99.1 8c-.3 1.1-.1 2 .4 2s.9-.9.9-2-.2-2-.4-2-.6.9-.9 2zm27.3-.2c0 1-.5 2.3-1.2 3-1.5 1.5-.3 2.8 1.4 1.5.7-.6 2-1.2 2.8-1.4 1.2-.3 1-.9-.7-2.6-2-2-2.3-2-2.3-.5zm29.5 1.3c-.4 1.7-.4 3.3-.1 3.6.3.4.6-.4.6-1.6 0-1.7.4-2.1 1.5-1.7 1 .4 1.5-.1 1.5-1.4 0-3.2-2.8-2.3-3.5 1.1zm92.5-1.7c0 .2.7.6 1.5 1 .8.3 1.5.1 1.5-.4 0-.6-.7-1-1.5-1s-1.5.2-1.5.4zm-69.9 2.2c0 1.1.3 1.4.6.6.3-.7.2-1.6-.1-1.9-.3-.4-.6.2-.5 1.3zM74 210.3c0 .4.7 1 1.5 1.3.9.4 1.5 1.9 1.5 3.8 0 2.4.3 2.8 1 1.6.9-1.3 1.1-1.3 2 0 .5.8 1 1 1 .4s-.7-1.7-1.5-2.4c-2-1.7-1.9-3.7.3-4.9 1.3-.8.9-1-2-.8-2.1.1-3.8.6-3.8 1zm238.6 1.2c-.9 2.6-.7 3.2.5 1.2.6-1 .9-2.1.6-2.3-.2-.3-.7.2-1.1 1.1zm-57.3 6c0 2.2.2 3 .4 1.7.2-1.2.2-3 0-4-.3-.9-.5.1-.4 2.3zm27.3.4c-.4.6-.2 1.1.3 1.1.6 0 1.2 1 1.2 2.2.1 1.7.3 1.8.6.6.6-2.3-1.2-5.5-2.1-3.9zM199 220c0 .5.5 1 1 1 .6 0 1-.5 1-1 0-.6-.4-1-1-1-.5 0-1 .4-1 1zm-60.8 2c0 1.4.2 1.9.5 1.2.2-.6.2-1.8 0-2.5-.3-.6-.5-.1-.5 1.3zM78 223c0 .5.5 1 1 1 .6 0 1-.5 1-1 0-.6-.4-1-1-1-.5 0-1 .4-1 1zm104.8 5.5c1.9 3.8 3.3 4.7 2.5 1.5-.3-1.1-.9-2-1.4-2-.5 0-.9-.7-.9-1.5s-.4-1.5-1-1.5c-.5 0-.2 1.6.8 3.5zm-17.7 8.1c0 1.1.3 1.4.6.6.3-.7.2-1.6-.1-1.9-.3-.4-.6.2-.5 1.3zm3 0c0 1.1.3 1.4.6.6.3-.7.2-1.6-.1-1.9-.3-.4-.6.2-.5 1.3zM4.7 238.5c-.4.8-.2 1.7.3 2 .6.4 1-.3 1-1.4 0-2.5-.6-2.7-1.3-.6zm75.4 6.1c0 1.1.3 1.4.6.6.3-.7.2-1.6-.1-1.9-.3-.4-.6.2-.5 1.3zm243.9.5c0 .5.5.7 1 .4.6-.3 1-.8 1-1.1 0-.2-.4-.4-1-.4-.5 0-1 .5-1 1.1zm31-.3c0 1.2 1.9 2.6 2.6 1.9.2-.2-.2-1-1.1-1.7-.9-.8-1.5-.8-1.5-.2zm-63.3.9c-.4.3-.7 1.1-.7 1.7 0 .6.5.5 1.2-.2.6-.6.9-1.4.7-1.7-.3-.3-.9-.2-1.2.2zm82.5 5.3c0 1.4.2 1.9.5 1.2.2-.6.2-1.8 0-2.5-.3-.6-.5-.1-.5 1.3zm-340.2.4c0 .2.7.7 1.6 1 .8.3 1.2.2.9-.4-.6-1-2.5-1.4-2.5-.6zm107 4.2c0 .8.5 1.2 1 .9.6-.4.8-1.1.5-1.6-.9-1.4-1.5-1.1-1.5.7zm201.1 3.1c1.3 1.5 4.9 1.8 4.9.4 0-.5-1.3-1.1-3-1.3-2.4-.4-2.7-.2-1.9.9zm-183 .9c0 1.1.3 1.4.6.6.3-.7.2-1.6-.1-1.9-.3-.4-.6.2-.5 1.3zm101.7 1.9c-.3 1.4-.1 2.5.3 2.5.5 0 .9-1.1.9-2.5s-.2-2.5-.4-2.5-.6 1.1-.8 2.5zm76.2-1.1c0 .2.7.7 1.6 1 .8.3 1.2.2.9-.4-.6-1-2.5-1.4-2.5-.6zm4 2.5c0 .5.7 1.2 1.6 1.5 1.4.5 1.5.4.4-.9-1.4-1.7-2-1.9-2-.6zM158.2 266c0 1.4.2 1.9.5 1.2.2-.6.2-1.8 0-2.5-.3-.6-.5-.1-.5 1.3zm-120.6.4c.3.8 1.3 1.7 2.2 2.1 1.3.5 1.3.2-.3-1.5-2.1-2.4-2.6-2.5-1.9-.6zm104.2 1.2c.3 1.6-.1 3-.9 3.5-1.2.7-1.1.9.1.9 3.2 0 4.1-1.4 2.7-4.3-1.5-3.4-2.6-3.5-1.9-.1zM35 270.5c.7.9 1.5 1.3 1.7 1.1.7-.7-.7-2.6-1.9-2.6-.6 0-.6.6.2 1.5zM22.5 274c-.3.5-1.6 1-2.8 1h-2.1l2.1 1.5c1.2.8 2.4 2.5 2.6 3.8.3 1.6.5 1.3.6-1 0-1.7.6-3.5 1.1-3.8.6-.3 1-1 1-1.6 0-1.2-1.7-1.2-2.5.1zm135.7 4c0 1.4.2 1.9.5 1.2.2-.6.2-1.8 0-2.5-.3-.6-.5-.1-.5 1.3zm110.8 6.5c0 1.4.5 2.5 1 2.5.6 0 1-1.1 1-2.5s-.4-2.5-1-2.5c-.5 0-1 1.1-1 2.5zm135.1 6.1c0 1.1.3 1.4.6.6.3-.7.2-1.6-.1-1.9-.3-.4-.6.2-.5 1.3zm-374 4c0 1.1.3 1.4.6.6.3-.7.2-1.6-.1-1.9-.3-.4-.6.2-.5 1.3zm12.7 20.1c.7.3 1.6.2 1.9-.1.4-.3-.2-.6-1.3-.5-1.1 0-1.4.3-.6.6zm96.9.4c.7.7 1.5 1 1.8.7.3-.3-.2-.9-1.2-1.2-1.4-.6-1.5-.5-.6.5zM46.5 318c.3.5.8 1 1.1 1 .2 0 .4-.5.4-1 0-.6-.5-1-1.1-1-.5 0-.7.4-.4 1zm7.5 3.8c0 1.2 1.9 2.6 2.6 1.9.2-.2-.2-1-1.1-1.7-.9-.8-1.5-.8-1.5-.2zm-20 .6c0 .2.7.7 1.6 1 .8.3 1.2.2.9-.4-.6-1-2.5-1.4-2.5-.6zm17.5 3.6c2.1 2.4 2.6 2.5 1.9.6-.3-.8-1.3-1.7-2.2-2.1-1.3-.5-1.3-.2.3 1.5zm-12.7.7c.7.3 1.6.2 1.9-.1.4-.3-.2-.6-1.3-.5-1.1 0-1.4.3-.6.6zm350.9 3.6c-.3.9-1.7 2.2-2.9 2.7-2.3.9-2.3.9.3.9 1.4.1 3 .6 3.7 1.3 1.5 1.5 2.8.3 1.5-1.4-.6-.7-1.3-2.2-1.5-3.3-.3-1.8-.4-1.8-1.1-.2zm-343.5 3.1c.7.8 1.5 1.2 1.7 1.1.5-.6-1-2.5-2-2.5-.5 0-.4.6.3 1.4zm327.5.1c.3.8.9 1.2 1.4.9 1.2-.7 1.1-1.1-.5-1.7-1-.4-1.3-.1-.9.8zm-5.6 3.1c0 1.1.3 1.4.6.6.3-.7.2-1.6-.1-1.9-.3-.4-.6.2-.5 1.3zm-7.1 5.8c0 .2.7.7 1.6 1 .8.3 1.2.2.9-.4-.6-1-2.5-1.4-2.5-.6zm17.8.3c.7.3 1.6.2 1.9-.1.4-.3-.2-.6-1.3-.5-1.1 0-1.4.3-.6.6zm-9 8c.7.3 1.6.2 1.9-.1.4-.3-.2-.6-1.3-.5-1.1 0-1.4.3-.6.6zm-120.1 3.4c.7.7 1.5 1 1.8.7.3-.3-.2-.9-1.2-1.2-1.4-.6-1.5-.5-.6.5zm-35.2 1.9c-.3.6.1.7.9.4 1.8-.7 2.1-1.4.7-1.4-.6 0-1.3.4-1.6 1zm29 0c1.1.5 2.9.8 4 .8 1.6 0 1.5-.2-.5-.8-3.4-1.1-6-1.1-3.5 0zM70 358c0 .5.5 1 1.1 1 .5 0 .7-.5.4-1-.3-.6-.8-1-1.1-1-.2 0-.4.4-.4 1zm165.8-.3c1.2.2 3 .2 4 0 .9-.3-.1-.5-2.3-.4-2.2 0-3 .2-1.7.4zm15 0c.6.2 1.8.2 2.5 0 .6-.3.1-.5-1.3-.5-1.4 0-1.9.2-1.2.5zm82.5 3.9c-1.2 2.6-1.2 2.6.7.9 1.1-1 1.7-2.2 1.4-2.6-.7-1.2-.7-1.2-2.1 1.7zm.7 5.4c-1.4 2.5-.9 2.5 1.3 0 .9-1.1 1.3-2 .7-2-.5 0-1.4.9-2 2z"/></svg>